<svg width="3815" height="647" viewBox="0 0 3815 647" fill="none" xmlns="http://www.w3.org/2000/svg">
<path d="M1238.18 52.0051C1461.19 51.949 1684.83 55.1467 1907.8 51.9209C2138.69 48.5829 2361.41 0.224052 2592.85 1.00946C2699.76 77.4748 2784.49 156.829 2906.04 224.964C2994.45 274.557 3099.39 305.861 3195.02 348.946C3404.95 443.56 3607.11 547.122 3812.63 645.972H3C208.856 546.954 414.712 447.964 620.609 348.946C702.692 309.479 795.302 249.564 894.58 232.341C953.007 222.215 1007.36 234.809 1059.92 209.312C1135.21 172.818 1178.16 99.0175 1238.22 52.0051H1238.18Z" stroke="white" stroke-opacity="0.22" stroke-miterlimit="10"/>
<path d="M189.478 556.295H3626.15" stroke="white" stroke-opacity="0.22" stroke-miterlimit="10"/>
<path d="M342.654 482.634C491.258 482.634 640.533 485.888 788.717 476.996C927.758 468.665 1065.75 453.378 1205.17 447.627C1440.05 437.95 1673.71 474.668 1907.8 482.606C2145.32 490.685 2374.58 555.789 2613.99 539.632C2753.37 530.236 2889.05 505.383 3027.46 491.779C3174.6 477.333 3324.67 482.606 3472.94 482.606" stroke="white" stroke-opacity="0.22" stroke-miterlimit="10"/>
<path d="M470.79 421.007C743.628 421.007 1008.96 382.354 1280.33 379.352C1491.55 377.024 1696.15 424.149 1906.79 430.797C2120.49 437.557 2324.04 501.989 2538.49 498.623C2660.38 496.715 2779.79 471.891 2897.15 452.171C3048.18 426.786 3189.78 420.979 3344.89 420.979" stroke="white" stroke-opacity="0.22" stroke-miterlimit="10"/>
<path d="M579.505 368.721C822.019 368.806 1066.13 357.642 1308.47 363.869C1508.96 369.03 1701.65 413.49 1902.76 415.341C2102.66 417.193 2302.69 425.019 2502.55 424.43C2750.72 423.7 2987.45 368.665 3236.04 368.693" stroke="white" stroke-opacity="0.22" stroke-miterlimit="10"/>
<path d="M673.08 323.7C894.37 324.205 1120.86 319.773 1341.57 330.516C1529.72 339.689 1713.05 373.882 1902.3 375.93C2093.77 378.006 2284.15 355.313 2475.66 359.913C2703.66 365.383 2915.47 341.708 3141.76 325.888" stroke="white" stroke-opacity="0.22" stroke-miterlimit="10"/>
<path d="M751.094 286.816C949.526 293.912 1148.29 299.55 1346.56 307.152C1531.61 314.249 1716.41 339.606 1902.18 336.942C2100.52 334.08 2288.05 276.353 2486.23 274.894C2569.49 274.277 2648.89 292.566 2731.43 298.064C2840.98 305.357 2950.45 300.083 3059.76 293.463" stroke="white" stroke-opacity="0.22" stroke-miterlimit="10"/>
<path d="M816.231 256.717C997.383 268.723 1175.85 275.427 1357.46 281.373C1538.32 287.32 1720.98 306.31 1902.26 302.467C2092.09 298.428 2261.5 229.929 2448.78 217.054C2538.95 210.855 2604.97 232.79 2689.7 247.937C2786.58 265.272 2884.44 268.666 2984.22 266.675" stroke="white" stroke-opacity="0.22" stroke-miterlimit="10"/>
<path d="M876.126 235.567C1215.86 275.286 1559.46 266.506 1903.39 261.541C2069.15 259.157 2225.47 218.849 2388.67 204.543C2564.87 189.059 2745.14 234.333 2923.7 234.838" stroke="white" stroke-opacity="0.22" stroke-miterlimit="10"/>
<path d="M934.637 228.919C1109.79 260.42 1265.36 273.463 1446.05 255.567C1599.35 240.392 1750.17 217.699 1905.57 214.305C2054.05 211.079 2199.01 194.249 2346.81 185.946C2520.67 176.185 2694.52 201.739 2868.75 203.674" stroke="white" stroke-opacity="0.22" stroke-miterlimit="10"/>
<path d="M988.952 227.179C1161.3 264.626 1303.06 273.266 1478.47 241.26C1619.94 215.426 1759.19 178.371 1907.25 174.276C2212.47 165.805 2514.25 171.639 2819.34 174.276" stroke="white" stroke-opacity="0.22" stroke-miterlimit="10"/>
<path d="M1035.85 220.336C1196.44 254.753 1330.28 257.166 1491.05 222.075C1628.58 192.033 1761.08 151.191 1907.8 147.741C2196.45 140.953 2487.41 147.096 2776.22 147.348" stroke="white" stroke-opacity="0.22" stroke-miterlimit="10"/>
<path d="M1076.86 198.428C1230.75 223.308 1359.6 217.39 1510.43 188.666C1641.58 163.701 1770.1 131.556 1907.75 128.19C2183.4 121.486 2461.15 118.596 2736.92 122.187" stroke="white" stroke-opacity="0.22" stroke-miterlimit="10"/>
<path d="M1114.82 166.563C1390.26 194.081 1636.09 115.624 1907.8 110.098C2172.92 104.712 2437.45 86.5918 2702.87 93.8849" stroke="white" stroke-opacity="0.22" stroke-miterlimit="10"/>
<path d="M1149.8 131.36C1405.91 143.169 1652.99 98.5971 1907.84 93.548C2163.56 88.499 2416.19 56.0447 2672.5 65.4977" stroke="white" stroke-opacity="0.22" stroke-miterlimit="10"/>
<path d="M1181.93 98.0639C1424.57 100.112 1665.49 82.2715 1907.84 78.5128C2155.05 74.6979 2396.56 30.2662 2644.61 39.4386" stroke="white" stroke-opacity="0.22" stroke-miterlimit="10"/>
<path d="M1211.33 70.6861C1443.53 68.8348 1675.68 66.5907 1907.84 64.4309C2146.87 62.1868 2378.35 11.2754 2618.27 17.5587" stroke="white" stroke-opacity="0.22" stroke-miterlimit="10"/>
<path d="M2513.96 1.40234C2571.5 44.2914 2605.68 96.9699 2662.85 139.775C2707.98 173.604 2761.84 203.533 2811.96 233.968C2885.07 278.344 2960.69 319.381 3042.9 355.23C3236.21 439.493 3410.02 548.693 3588.49 645.972" stroke="white" stroke-opacity="0.22" stroke-miterlimit="10"/>
<path d="M2433.84 5.80542C2487.57 49.7323 2515.72 104.599 2571.37 146.983C2604.34 172.088 2647.5 193.547 2684.62 215.791C2764.82 263.869 2812.13 325.468 2889.72 371.498C3046.92 464.738 3210.75 549.338 3364.43 645.999" stroke="white" stroke-opacity="0.22" stroke-miterlimit="10"/>
<path d="M2352.89 13.0427C2395.93 52.5657 2418.28 100.981 2463.33 138.736C2494.74 165.048 2536.31 182.635 2576.11 203.252C2630.64 231.499 2664.36 251.976 2683.49 298.231C2697.83 332.789 2704.96 359.325 2736.34 389.367C2781.93 433.041 2832.8 476.126 2902.26 502.185C3002.13 539.66 3062.36 588.047 3140.33 645.971" stroke="white" stroke-opacity="0.22" stroke-miterlimit="10"/>
<path d="M2271.4 21.9341C2336.91 91.9198 2356.21 151.611 2466.85 194.921C2527.17 218.511 2547.17 218.175 2560.13 270.937C2571.21 316.042 2556.69 357.473 2583.75 400.418C2617.18 453.433 2644.94 511.974 2727.11 529.534C2761 536.799 2778.53 532.114 2809.11 550.179C2851.18 575.031 2883.09 615.845 2916.27 645.971" stroke="white" stroke-opacity="0.22" stroke-miterlimit="10"/>
<path d="M2189.78 31.3892C2236.8 92.9597 2256.21 159.439 2346.27 200.841C2388.84 220.421 2411.74 222.44 2423.19 259.523C2437.62 306.143 2413.33 354.782 2432.25 401.149C2444.12 430.293 2473.35 534.978 2522.43 543.729C2578.34 553.715 2563.82 519.269 2614.11 554.781C2647 578.007 2668.77 618.624 2692.17 645.973" stroke="white" stroke-opacity="0.22" stroke-miterlimit="10"/>
<path d="M2108.32 40.1943C2142.76 100.671 2165.41 161.877 2218.59 216.968C2244.18 243.475 2266.53 257.22 2275.09 290.179C2284.61 326.869 2270.77 364.288 2280.79 401.147C2290.19 435.789 2307.51 504.26 2344.8 526.476C2363.92 537.864 2387.54 532.338 2407.04 546.419C2437.03 568.018 2451.96 619.659 2468.07 645.97" stroke="white" stroke-opacity="0.22" stroke-miterlimit="10"/>
<path d="M2027.42 47.2356C2048.14 105.272 2063.53 164.29 2085.8 222.074C2096.87 250.713 2115.83 278.595 2122.54 307.964C2129.42 338.09 2122.33 368.889 2130.55 399.015C2153.75 484.317 2213.01 561.539 2243.97 645.971" stroke="white" stroke-opacity="0.22" stroke-miterlimit="10"/>
<path d="M1947.39 51.3313C1961.52 166.366 1952.88 285.58 1978.22 399.577C1996.38 481.372 2009.72 562.97 2019.87 645.971" stroke="white" stroke-opacity="0.22" stroke-miterlimit="10"/>
<path d="M1868.41 51.8931C1844.25 249.957 1819.97 447.936 1795.77 646" stroke="white" stroke-opacity="0.22" stroke-miterlimit="10"/>
<path d="M1789.64 51.8374C1721.61 251.276 1644.52 447.46 1571.67 645.972" stroke="white" stroke-opacity="0.22" stroke-miterlimit="10"/>
<path d="M1710.87 51.8635C1656.18 159.886 1599.1 265.018 1527.21 367.739C1463.58 458.678 1404.9 552.254 1347.56 645.97" stroke="white" stroke-opacity="0.22" stroke-miterlimit="10"/>
<path d="M1632.11 51.9209C1579.55 135.932 1568.86 205.805 1465.05 263.841C1417.15 290.63 1410.56 319.858 1377.13 352.453C1282.26 444.85 1207.81 547.515 1123.51 646" stroke="white" stroke-opacity="0.22" stroke-miterlimit="10"/>
<path d="M1553.29 51.9773C1514.37 105.497 1495.75 167.208 1453.09 218.933C1417.57 262.047 1393.41 250.181 1339.97 265.132C1277.23 282.692 1267.2 314.865 1226.14 348.442C1183.02 383.701 1137.81 409.339 1100.44 449.676C1037.56 517.473 970.035 581.737 899.361 645.972" stroke="white" stroke-opacity="0.22" stroke-miterlimit="10"/>
<path d="M1474.52 52.033C1429.18 106.843 1407.79 195.651 1343.83 240.027C1298.66 271.359 1280.62 259.185 1220.35 265.777C1153.24 273.126 1120.32 317.502 1074.73 348.638C935.223 443.925 809.352 546.337 675.303 645.944" stroke="white" stroke-opacity="0.22" stroke-miterlimit="10"/>
<path d="M1395.76 52.0615C1360.61 84.7683 1332.72 120.056 1312.04 157.98C1294.21 193.183 1268.17 225.273 1233.9 254.305C1193.42 273.183 1147.83 254.333 1105.22 259.55C1031.52 268.554 977.46 316.324 923.354 348.919C762.88 445.664 608.74 546.898 451.203 645.972" stroke="white" stroke-opacity="0.22" stroke-miterlimit="10"/>
<path d="M1316.95 52.033C1259.86 103.702 1222.36 199.971 1143.26 236.913C1096.83 258.624 1045.7 242.916 994.824 248.694C912.155 258.091 835.776 314.444 772.023 349.03C590.033 447.74 408.714 546.982 227.101 645.972" stroke="white" stroke-opacity="0.22" stroke-miterlimit="10"/>
</svg>
