<svg width="1528" height="659" viewBox="0 0 1528 659" fill="none" xmlns="http://www.w3.org/2000/svg">
<g clip-path="url(#clip0_269_132)">
<path d="M461.827 410.516H1100.02L1526.35 658.552H1.77881L461.827 410.516Z" stroke="white" stroke-opacity="0.6" stroke-width="0.5" stroke-miterlimit="10"/>
<path d="M118.839 595.453H1417.88" stroke="white" stroke-opacity="0.6" stroke-width="0.5" stroke-miterlimit="10"/>
<path d="M205.713 548.605H1337.36" stroke="white" stroke-opacity="0.6" stroke-width="0.5" stroke-miterlimit="10"/>
<path d="M272.769 512.446H1275.23" stroke="white" stroke-opacity="0.6" stroke-width="0.5" stroke-miterlimit="10"/>
<path d="M326.08 483.713H1225.82" stroke="white" stroke-opacity="0.6" stroke-width="0.5" stroke-miterlimit="10"/>
<path d="M369.472 460.306H1185.61" stroke="white" stroke-opacity="0.6" stroke-width="0.5" stroke-miterlimit="10"/>
<path d="M405.497 440.9H1152.22" stroke="white" stroke-opacity="0.6" stroke-width="0.5" stroke-miterlimit="10"/>
<path d="M435.863 424.506H1124.08" stroke="white" stroke-opacity="0.6" stroke-width="0.5" stroke-miterlimit="10"/>
<path d="M1020.25 410.516L1335.78 658.552" stroke="white" stroke-opacity="0.6" stroke-width="0.5" stroke-miterlimit="10"/>
<path d="M940.471 410.516L1145.2 658.552" stroke="white" stroke-opacity="0.6" stroke-width="0.5" stroke-miterlimit="10"/>
<path d="M860.694 410.516L954.629 658.552" stroke="white" stroke-opacity="0.6" stroke-width="0.5" stroke-miterlimit="10"/>
<path d="M780.935 410.516L764.063 658.552" stroke="white" stroke-opacity="0.6" stroke-width="0.5" stroke-miterlimit="10"/>
<path d="M701.158 410.516L573.496 658.552" stroke="white" stroke-opacity="0.6" stroke-width="0.5" stroke-miterlimit="10"/>
<path d="M621.381 410.516L382.912 658.552" stroke="white" stroke-opacity="0.6" stroke-width="0.5" stroke-miterlimit="10"/>
<path d="M541.603 410.516L192.345 658.552" stroke="white" stroke-opacity="0.6" stroke-width="0.5" stroke-miterlimit="10"/>
<path d="M774.394 503.406C874.62 503.406 955.869 492.164 955.869 478.296C955.869 464.428 874.62 453.186 774.394 453.186C674.169 453.186 592.92 464.428 592.92 478.296C592.92 492.164 674.169 503.406 774.394 503.406Z" fill="black" stroke="white" stroke-opacity="0.6" stroke-width="0.5" stroke-miterlimit="10"/>
<path d="M678.698 39.0284C678.698 39.0284 678.59 39.0284 678.536 39.0464C665.797 40.553 652.842 42.3645 640.013 44.4451C639.151 44.5886 638.288 44.7321 637.426 44.8755L637.174 44.9652C636.474 45.4495 635.791 45.9517 635.108 46.4539C613.008 62.2913 593.872 81.5544 578.15 103.741C578.096 103.795 578.06 103.867 578.006 103.938C577.737 104.333 577.467 104.71 577.198 105.104L578.599 104.853C578.689 104.853 578.761 104.835 578.851 104.799C596.064 101.75 613.78 99.0419 631.514 96.7282C631.91 96.6743 632.287 96.6205 632.682 96.5667L632.97 96.5129C632.97 96.5129 633.06 96.3515 633.114 96.2618C633.311 95.921 633.509 95.5623 633.724 95.2215C646.41 73.555 661.628 55.0272 679.003 40.1584C679.057 40.1225 679.093 40.0867 679.129 40.0329C679.327 39.8714 679.488 39.71 679.686 39.5665L680.62 38.7773C679.974 38.8491 679.327 38.9388 678.68 39.0105L678.698 39.0284ZM632.251 95.4547C614.625 97.7326 596.98 100.405 579.803 103.454C595.776 81.1419 615.272 61.8249 637.749 46.0234C650.794 43.8891 663.964 42.0058 676.937 40.4454C659.814 55.386 644.793 73.8779 632.251 95.4547Z" stroke="white" stroke-opacity="0.6" stroke-width="0.35" stroke-miterlimit="10"/>
<path d="M777.143 0.843009V2.02678H776.155C775.508 2.02678 774.897 2.02678 774.269 2.04471C773.568 2.04471 772.867 2.04471 772.166 2.08058C771.394 2.08058 770.711 2.09852 770.046 2.13439H769.92C769.92 2.13439 769.795 2.13439 769.723 2.13439C767.207 2.20614 764.71 2.33169 762.212 2.49311C762.212 2.49311 762.206 2.49311 762.194 2.49311C757.684 2.74421 753.174 3.15674 748.718 3.67688H748.7C709.674 8.25053 672.517 22.1329 640.031 44.4272C639.312 44.9115 638.594 45.4137 637.875 45.9159L637.534 45.4316L637.192 44.9473C637.192 44.9473 637.264 44.8935 637.3 44.8756C676.308 17.5413 722.126 2.34962 769.866 0.932688H770.118C770.801 0.914753 771.412 0.896817 772.041 0.878881H772.13C772.885 0.860945 773.568 0.843009 774.233 0.843009H774.287C774.987 0.843009 775.688 0.825073 776.407 0.825073H777.179L777.143 0.843009Z" stroke="white" stroke-opacity="0.6" stroke-width="0.35" stroke-miterlimit="10"/>
<path d="M776.479 486.062C776.479 486.062 776.425 486.062 776.389 486.062C776.317 486.062 776.245 486.062 776.173 486.062C774.448 486.062 772.723 486.044 770.998 485.991C768.591 485.937 766.201 485.829 763.811 485.704C759.391 485.47 754.989 485.094 750.605 484.61C750.551 484.61 750.515 484.61 750.443 484.592C714.633 480.664 680.207 468.862 649.482 449.832C648.763 449.401 648.045 448.953 647.326 448.505C647.2 448.415 647.057 448.325 646.931 448.254C622.495 432.685 601.239 413.099 583.774 390.034C583.451 389.639 583.145 389.227 582.858 388.832C582.786 388.724 582.696 388.635 582.624 388.527C571.125 373.138 561.476 356.386 553.947 338.719C553.822 338.414 553.696 338.109 553.552 337.804C553.498 337.679 553.462 337.571 553.408 337.464C547.263 322.81 542.556 307.493 539.447 291.906C539.393 291.655 539.34 291.404 539.286 291.153C539.268 290.992 539.232 290.866 539.196 290.705C536.393 276.392 534.884 261.685 534.722 246.995C534.722 246.798 534.722 246.6 534.722 246.385V245.811C534.722 245.237 534.722 244.663 534.722 244.089C534.722 230.046 535.944 215.948 538.333 202.173C538.351 202.012 538.387 201.868 538.423 201.707C538.477 201.456 538.513 201.205 538.549 200.972C541.334 185.475 545.664 170.229 551.432 155.594C551.486 155.486 551.522 155.361 551.558 155.271C551.683 154.966 551.809 154.643 551.935 154.338C558.924 136.905 567.98 120.242 578.851 104.853C578.887 104.799 578.941 104.728 578.977 104.656L578.491 104.315L578.006 103.974C577.737 104.369 577.467 104.746 577.198 105.14C566.453 120.529 557.523 137.12 550.605 154.5C550.551 154.607 550.516 154.733 550.48 154.823C550.354 155.145 550.228 155.45 550.12 155.773C544.424 170.391 540.13 185.618 537.363 201.061C537.327 201.205 537.309 201.348 537.273 201.492C537.219 201.743 537.183 201.994 537.148 202.263C534.758 216.002 533.554 230.064 533.554 244.072C533.554 244.645 533.554 245.219 533.554 245.793V246.385C533.554 246.583 533.554 246.78 533.554 246.977C533.716 261.649 535.225 276.302 537.992 290.597C538.046 290.848 538.1 291.117 538.154 291.368C538.172 291.512 538.208 291.655 538.244 291.799C541.334 307.367 545.988 322.649 552.097 337.266C552.222 337.589 552.366 337.912 552.492 338.235C552.546 338.325 552.582 338.432 552.618 338.522C560.056 356.135 569.597 372.851 580.971 388.204C581.276 388.635 581.618 389.083 581.923 389.514C581.977 389.585 582.031 389.657 582.085 389.729C599.37 412.758 620.338 432.362 644.487 448.038C645.098 448.433 645.709 448.827 646.32 449.222C646.41 449.276 646.5 449.33 646.571 449.383C685.58 474.153 730.751 487.246 777.179 487.246V486.062H776.497H776.479Z" stroke="white" stroke-opacity="0.6" stroke-width="0.35" stroke-miterlimit="10"/>
<path d="M679.147 40.0687L678.374 39.1719C705.703 15.8374 737.345 2.63657 769.884 0.950599H770.01C771.052 0.896791 772.13 0.86092 773.208 0.825048C773.694 0.807112 774.197 0.789176 774.718 0.789176C775.437 0.789176 776.101 0.77124 776.784 0.77124H777.072V1.95501H776.784C776.119 1.95501 775.454 1.95501 774.808 1.97294C774.233 1.97294 773.748 1.97294 773.262 2.00882C772.184 2.02675 771.124 2.08056 770.064 2.13437H769.938C737.704 3.8024 706.314 16.9135 679.183 40.0687H679.147Z" stroke="white" stroke-opacity="0.6" stroke-width="0.35" stroke-miterlimit="10"/>
<path d="M777.054 487.174C744.765 487.174 713.016 475.839 685.274 454.37C666.067 439.537 649.231 420.381 635.18 397.441C625.351 381.389 617.086 363.74 610.654 344.997C605.174 329.07 600.987 312.282 598.22 295.099C595.651 279.172 594.303 262.779 594.177 246.349C594.177 245.56 594.177 244.753 594.177 243.964C594.177 228.378 595.291 212.791 597.501 197.653C599.963 180.65 603.826 163.916 609.001 147.899C615.02 129.282 622.8 111.723 632.089 95.688L633.114 96.2799C623.86 112.243 616.134 129.73 610.133 148.258C604.976 164.203 601.113 180.883 598.669 197.815C596.477 212.899 595.363 228.431 595.363 243.964C595.363 244.753 595.363 245.56 595.363 246.331C595.471 262.707 596.837 279.046 599.388 294.902C602.137 312.013 606.306 328.729 611.768 344.602C618.182 363.255 626.394 380.833 636.186 396.813C650.147 419.628 666.911 438.658 685.993 453.419C713.537 474.709 745.017 485.973 777.054 485.973V487.156V487.174Z" stroke="white" stroke-opacity="0.6" stroke-width="0.35" stroke-miterlimit="10"/>
<path d="M665.617 143.882L665.797 143.11C670.109 124.26 675.643 106.503 682.255 90.3251L682.399 89.9843L682.759 89.9484C698.552 88.5673 714.58 87.4733 730.427 86.7199L731.2 86.6841L731.038 87.4374C727.624 103.616 724.749 121.408 722.503 140.348L722.449 140.85H721.946C703.368 141.55 684.681 142.554 666.444 143.828L665.653 143.882H665.617ZM683.208 91.0963C676.775 106.898 671.367 124.224 667.127 142.59C684.969 141.353 703.206 140.384 721.371 139.703C723.581 121.193 726.384 103.795 729.708 87.9217C714.256 88.657 698.624 89.7332 683.226 91.0784L683.208 91.0963Z" stroke="white" stroke-opacity="0.6" stroke-width="0.35" stroke-miterlimit="10"/>
<path d="M714.669 36.4815L713.753 35.7282C731.308 14.5639 751.485 2.52893 772.077 0.914702H772.418C772.652 0.87883 772.867 0.860894 773.101 0.842958L773.262 0.789151L773.352 0.825022C773.909 0.789151 774.502 0.753279 775.077 0.753279C775.634 0.735343 776.173 0.717407 776.748 0.717407H776.946V1.90118H776.748C776.209 1.90118 775.67 1.90118 775.113 1.93705C774.502 1.93705 773.909 1.97292 773.316 2.02673H773.155H773.137C772.939 2.02673 772.723 2.04466 772.508 2.0626H772.166C751.899 3.67683 732.008 15.5683 714.669 36.4815Z" stroke="white" stroke-opacity="0.6" stroke-width="0.35" stroke-miterlimit="10"/>
<path d="M776.964 487.103C756.481 487.103 736.213 476.825 718.371 457.383C705.47 443.321 694.042 424.901 684.412 402.607C677.458 386.536 671.601 368.744 666.983 349.696C662.976 333.159 659.904 315.707 657.873 297.825C655.969 281.037 654.962 263.729 654.873 246.367C654.873 245.56 654.873 244.735 654.873 243.928C654.873 227.445 655.699 210.962 657.352 194.945C659.185 177.045 662.042 159.611 665.815 143.128L666.965 143.397C663.192 159.827 660.353 177.224 658.52 195.071C656.885 211.051 656.058 227.499 656.058 243.928C656.058 244.735 656.058 245.56 656.058 246.367C656.13 263.693 657.137 280.966 659.041 297.718C661.071 315.564 664.126 332.962 668.115 349.445C672.715 368.421 678.554 386.141 685.472 402.158C695.049 424.327 706.422 442.64 719.233 456.612C736.842 475.803 756.804 485.955 776.964 485.955V487.138V487.103Z" stroke="white" stroke-opacity="0.6" stroke-width="0.35" stroke-miterlimit="10"/>
<path d="M746.868 34.3293L745.79 33.863C754.45 13.7031 763.991 2.60076 774.161 0.878918C774.305 0.843047 774.484 0.825111 774.664 0.807175C774.754 0.789239 774.897 0.771303 775.041 0.753367C775.616 0.681624 776.191 0.645752 776.766 0.645752L776.874 1.82952C776.245 1.82952 775.724 1.86539 775.185 1.93714C775.041 1.93714 774.933 1.95507 774.826 1.97301C774.646 1.97301 774.52 2.00888 774.412 2.04475H774.269C764.728 3.67692 755.223 14.833 746.868 34.3293Z" stroke="white" stroke-opacity="0.6" stroke-width="0.35" stroke-miterlimit="10"/>
<path d="M776.874 487.031C766.65 487.031 756.984 477.596 748.107 458.979C741.603 445.33 735.853 427.358 730.966 405.566C727.373 389.478 724.318 371.631 721.928 352.512C719.808 335.706 718.191 317.86 717.131 299.493C716.107 282.06 715.568 264.178 715.532 246.349C715.532 245.524 715.532 244.681 715.532 243.838C715.532 226.889 715.981 209.85 716.861 193.223C717.832 174.947 719.341 157.118 721.335 140.205L722.503 140.348C720.509 157.226 719 175.036 718.029 193.277C717.149 209.886 716.7 226.889 716.7 243.82C716.7 244.663 716.7 245.488 716.7 246.331C716.736 264.16 717.275 282.006 718.299 299.421C719.377 317.77 720.994 335.58 723.096 352.368C725.504 371.452 728.541 389.262 732.116 405.315C736.967 427.017 742.699 444.917 749.168 458.477C757.702 476.377 767.279 485.847 776.856 485.847V487.031H776.874Z" stroke="white" stroke-opacity="0.6" stroke-width="0.35" stroke-miterlimit="10"/>
<path d="M776.173 486.367V1.30938L777.359 1.16589V486.242L776.173 486.367Z" stroke="white" stroke-opacity="0.6" stroke-width="0.35" stroke-miterlimit="10"/>
<path d="M776.676 486.905V485.721C809.845 485.721 836.851 377.156 836.851 243.713C836.851 110.27 809.845 1.68597 776.676 1.68597V0.520142C793.207 0.520142 808.659 25.9173 820.212 72.0305C831.694 117.893 838.018 178.875 838.018 243.713C838.018 308.551 831.694 369.533 820.212 415.395C808.659 461.508 793.207 486.905 776.676 486.905Z" stroke="white" stroke-opacity="0.6" stroke-width="0.35" stroke-miterlimit="10"/>
<path d="M776.569 486.833V485.65C843.247 485.65 897.492 377.084 897.492 243.641C897.492 110.198 843.247 1.63213 776.569 1.63213V0.448364C843.894 0.448364 898.678 109.552 898.678 243.641C898.678 377.73 843.894 486.833 776.569 486.833Z" stroke="white" stroke-opacity="0.6" stroke-width="0.35" stroke-miterlimit="10"/>
<path d="M776.479 486.762V485.578C876.667 485.578 958.169 377.012 958.169 243.569C958.169 110.126 876.667 1.56048 776.479 1.56048V0.376709C877.314 0.376709 959.355 109.481 959.355 243.569C959.355 377.658 877.314 486.762 776.479 486.762Z" stroke="white" stroke-opacity="0.6" stroke-width="0.35" stroke-miterlimit="10"/>
<path d="M1020.01 243.515C1020.01 244.269 1020.01 245.022 1020.01 245.775C1020.01 246.17 1020.01 246.565 1020.01 246.959C1019.8 262.456 1018.13 277.594 1015.13 292.265C1015.04 292.66 1014.97 293.072 1014.88 293.449C1011.46 309.789 1006.38 325.518 999.836 340.495C999.657 340.925 999.477 341.338 999.279 341.75C991.158 360.009 980.862 377.102 968.716 392.688C968.321 393.19 967.944 393.693 967.53 394.195C949.095 417.458 926.51 437.277 900.87 452.54C900.187 452.935 899.504 453.347 898.821 453.742C864.539 473.704 824.956 485.56 782.749 486.618C782.336 486.618 781.941 486.636 781.528 486.636C780.827 486.654 780.126 486.672 779.425 486.672C778.707 486.672 777.97 486.69 777.251 486.69H776.479V485.506C776.802 485.506 777.125 485.506 777.449 485.506C778.078 485.506 778.707 485.506 779.335 485.506C780.036 485.506 780.773 485.506 781.474 485.47C781.887 485.47 782.3 485.47 782.695 485.452H782.713C783.037 485.452 783.342 485.452 783.648 485.435C786.235 485.363 788.823 485.237 791.392 485.076C795.848 484.825 800.268 484.412 804.67 483.91C837.497 480.09 868.348 469.723 895.857 454.119C896.557 453.724 897.258 453.329 897.959 452.917C924.066 437.779 947.101 417.888 965.859 394.482C966.255 393.98 966.668 393.477 967.063 392.975C979.353 377.389 989.774 360.26 997.968 341.948C998.165 341.535 998.345 341.105 998.543 340.692C1005.14 325.716 1010.26 309.932 1013.73 293.557C1013.82 293.162 1013.89 292.767 1013.98 292.373C1017.01 277.683 1018.7 262.51 1018.9 246.995C1018.9 246.6 1018.9 246.206 1018.9 245.811C1018.9 245.058 1018.9 244.305 1018.9 243.551C1018.9 228.862 1017.59 214.477 1015.06 200.523C1014.98 200.129 1014.91 199.716 1014.84 199.321C1011.8 183.036 1007.15 167.342 1001.04 152.383C1000.86 151.953 1000.7 151.54 1000.52 151.128C992.991 133.012 983.324 116.009 971.843 100.423C971.519 99.9746 971.178 99.5441 970.854 99.0958C954.054 76.64 933.463 57.1796 910.015 41.6651C909.261 41.1629 908.488 40.6607 907.715 40.1764C876.973 20.3214 841.45 7.24612 803.305 3.03119C798.866 2.52898 794.375 2.17026 789.865 1.9371C787.439 1.79361 784.995 1.68599 782.552 1.65012C780.863 1.59631 779.138 1.57838 777.449 1.57838C777.377 1.57838 777.323 1.57838 777.251 1.57838H776.479V0.304932C825.926 0.304932 871.977 15.0841 910.447 40.4634C911.201 40.9656 911.956 41.4498 912.711 41.97C935.763 57.5563 956.013 76.9629 972.543 99.293C972.867 99.7414 973.208 100.19 973.532 100.638C984.905 116.225 994.446 133.192 1001.9 151.253C1002.08 151.684 1002.24 152.096 1002.41 152.509C1008.48 167.449 1013.1 183.125 1016.1 199.357C1016.17 199.752 1016.24 200.164 1016.33 200.559C1018.83 214.495 1020.12 228.862 1020.12 243.515H1020.01Z" stroke="white" stroke-opacity="0.6" stroke-width="0.35" stroke-miterlimit="10"/>
<path d="M681.878 91.2219L682.238 90.3251C691.132 68.5868 701.733 50.2026 713.753 35.7283L713.915 35.531H714.166C724.947 34.6522 735.764 33.9706 746.293 33.5043L747.227 33.4684L746.85 34.3293C740.849 48.3014 735.512 66.1655 731.002 87.4554L730.912 87.9038H730.463C714.651 88.675 698.624 89.7691 682.848 91.1502L681.878 91.2398V91.2219ZM714.508 36.661C702.793 50.8303 692.443 68.7303 683.711 89.8588C699.037 88.5315 714.58 87.4733 729.942 86.7379C734.362 66.022 739.555 48.5166 745.394 34.706C735.261 35.1723 724.875 35.8359 714.508 36.643V36.661Z" stroke="white" stroke-opacity="0.6" stroke-width="0.35" stroke-miterlimit="10"/>
<path d="M678.842 40.1943L678.698 39.0285C690.359 37.6474 702.29 36.4637 714.184 35.5131L714.274 36.6968C702.397 37.6474 690.485 38.8312 678.842 40.2123V40.1943Z" stroke="white" stroke-opacity="0.6" stroke-width="0.35" stroke-miterlimit="10"/>
<path d="M912.603 41.9699C911.83 41.8623 911.058 41.7726 910.285 41.665C910.159 41.665 910.051 41.6292 909.944 41.6112C897.833 40.0149 885.597 38.6697 873.595 37.5757C873.02 37.5218 872.427 37.468 871.852 37.4142C871.744 37.4142 871.618 37.3963 871.528 37.3963C860.891 36.4457 850.075 35.6745 839.33 35.0826C838.917 35.0646 838.504 35.0288 838.09 35.0108C837.982 35.0108 837.893 35.0108 837.785 35.0108C827.741 34.4907 817.679 34.132 807.85 33.9167C807.545 33.9167 807.222 33.9167 806.916 33.8988H806.629C796.818 33.7015 786.954 33.6656 777.341 33.8091H776.766C776.569 33.8091 776.371 33.8091 776.155 33.8091C766.381 33.9347 756.48 34.2216 746.706 34.67C746.58 34.67 746.454 34.67 746.329 34.67L746.275 33.4863C746.58 33.4863 746.886 33.4683 747.209 33.4504C756.804 33.0199 766.542 32.7509 776.137 32.6074C776.335 32.6074 776.533 32.6074 776.712 32.6074H777.323C786.774 32.4639 796.441 32.4998 806.072 32.6971C806.359 32.6971 806.629 32.6971 806.916 32.6971C807.042 32.6971 807.186 32.6971 807.311 32.6971C816.96 32.8944 826.842 33.2352 836.707 33.7374C837.174 33.7553 837.659 33.7912 838.144 33.8091C838.18 33.8091 838.234 33.8091 838.27 33.8091C848.799 34.3651 859.436 35.1184 869.875 36.0332C870.558 36.087 871.241 36.1587 871.942 36.2125H871.96C883.746 37.2707 895.713 38.5801 907.626 40.1046C908.524 40.2122 909.422 40.3378 910.321 40.4454C911.076 40.9476 911.83 41.4319 912.585 41.952L912.603 41.9699Z" stroke="white" stroke-opacity="0.6" stroke-width="0.35" stroke-miterlimit="10"/>
<path d="M637.605 46.0235C636.761 46.167 635.934 46.2925 635.09 46.454C635.773 45.9518 636.456 45.4496 637.156 44.9653C637.192 44.9474 637.228 44.9115 637.264 44.8935C637.318 44.8935 637.354 44.8935 637.408 44.8756L637.605 46.0414V46.0235Z" stroke="white" stroke-opacity="0.6" stroke-width="0.35" stroke-miterlimit="10"/>
<path d="M632.682 96.5667L632.539 95.4009C649.249 93.2306 666.138 91.4012 682.759 89.9484L682.866 91.1321C666.264 92.567 649.392 94.3965 632.7 96.5667H632.682Z" stroke="white" stroke-opacity="0.6" stroke-width="0.35" stroke-miterlimit="10"/>
<path d="M973.424 100.62C972.993 100.548 972.579 100.495 972.148 100.423C972.022 100.405 971.897 100.387 971.771 100.369C954.719 97.7684 937.434 95.5085 920.365 93.6611C920.005 93.6073 919.664 93.5714 919.305 93.5356C919.179 93.5356 919.053 93.5176 918.909 93.4817C902.918 91.7599 886.747 90.325 870.846 89.2847C870.558 89.2668 870.289 89.2489 870.001 89.2309C869.857 89.2309 869.732 89.213 869.588 89.213C854.441 88.1907 838.989 87.4553 823.626 87.0248C823.375 87.0248 823.123 87.0248 822.89 87.0069C822.746 87.0069 822.602 87.0069 822.458 87.0069C807.383 86.5764 792.2 86.4329 777.323 86.6123H776.748C776.551 86.6123 776.353 86.6123 776.137 86.6123C761.206 86.7558 745.987 87.1863 730.894 87.9037C730.733 87.9037 730.589 87.9037 730.427 87.9216L730.373 86.7379C730.625 86.7379 730.876 86.7199 731.128 86.702C746.131 86.0025 761.26 85.5541 776.119 85.4106C776.317 85.4106 776.515 85.4106 776.712 85.4106H777.305C792.111 85.2492 807.204 85.3927 822.189 85.8052C822.422 85.8052 822.656 85.8052 822.89 85.8052C823.051 85.8052 823.213 85.8052 823.357 85.8052C838.629 86.2357 853.992 86.971 869.049 87.9754C869.372 87.9754 869.714 88.0113 870.037 88.0292C870.127 88.0292 870.217 88.0292 870.289 88.0472C886.1 89.0875 902.181 90.4865 918.083 92.2083C918.514 92.2442 918.927 92.298 919.359 92.3339C919.413 92.3339 919.466 92.3339 919.52 92.3518C936.5 94.1812 953.695 96.4053 970.693 99.006C971.214 99.0957 971.735 99.1674 972.256 99.2392C972.292 99.2392 972.31 99.2392 972.346 99.2392C972.669 99.6876 973.011 100.136 973.334 100.584L973.424 100.62Z" stroke="white" stroke-opacity="0.6" stroke-width="0.35" stroke-miterlimit="10"/>
<path d="M578.599 104.835C578.132 104.925 577.665 104.997 577.198 105.086C577.467 104.692 577.737 104.315 578.006 103.92C578.06 103.867 578.096 103.795 578.15 103.723C578.24 103.705 578.312 103.687 578.384 103.669L578.491 104.243L578.599 104.817V104.835Z" stroke="white" stroke-opacity="0.6" stroke-width="0.35" stroke-miterlimit="10"/>
<path d="M1002.3 152.509C1001.99 152.455 1001.69 152.419 1001.38 152.383C1001.24 152.383 1001.11 152.347 1000.97 152.329C982.066 150.034 962.931 148.043 944.118 146.411C943.831 146.393 943.561 146.357 943.274 146.339C943.112 146.339 942.986 146.321 942.825 146.303C924.659 144.725 906.098 143.379 887.574 142.375C887.322 142.357 887.088 142.339 886.837 142.321C886.675 142.321 886.514 142.321 886.37 142.303C868.294 141.317 850.093 140.581 832.251 140.169C832.017 140.169 831.784 140.151 831.55 140.151C831.388 140.151 831.227 140.151 831.047 140.151C812.989 139.72 794.932 139.559 777.359 139.685H776.173C758.205 139.81 740.13 140.223 722.432 140.868C722.27 140.868 722.09 140.868 721.928 140.886V140.294L721.875 139.703C722.108 139.703 722.342 139.703 722.575 139.685C740.238 139.021 758.259 138.626 776.173 138.501H777.359C794.878 138.375 812.917 138.537 830.903 138.967C831.137 138.967 831.334 138.967 831.568 138.967C831.748 138.967 831.927 138.967 832.107 138.967C849.913 139.398 868.061 140.115 886.1 141.084C886.37 141.084 886.639 141.119 886.909 141.137C887.035 141.137 887.16 141.137 887.304 141.155C905.775 142.178 924.318 143.487 942.429 145.065C942.753 145.083 943.058 145.119 943.382 145.155C943.489 145.155 943.615 145.173 943.705 145.173C962.481 146.805 981.581 148.796 1000.45 151.056C1000.81 151.11 1001.17 151.146 1001.53 151.182C1001.62 151.182 1001.71 151.199 1001.79 151.217C1001.97 151.648 1002.14 152.06 1002.3 152.473V152.509Z" stroke="white" stroke-opacity="0.6" stroke-width="0.35" stroke-miterlimit="10"/>
<path d="M666.408 143.828C666.156 143.846 665.887 143.864 665.635 143.882C646.895 145.173 628.208 146.769 610.043 148.635C609.917 148.635 609.791 148.653 609.648 148.671C609.36 148.706 609.037 148.724 608.749 148.76C589.56 150.697 570.262 152.975 551.432 155.54C551.324 155.54 551.198 155.576 551.109 155.594C550.785 155.648 550.426 155.683 550.102 155.737C550.228 155.414 550.354 155.109 550.462 154.787C550.516 154.679 550.551 154.553 550.587 154.464C550.713 154.464 550.821 154.428 550.929 154.41C551.252 154.356 551.612 154.32 551.935 154.284C570.747 151.738 589.973 149.478 609.127 147.541C609.252 147.541 609.378 147.523 609.504 147.505C609.809 147.469 610.115 147.451 610.42 147.415C628.532 145.568 647.182 143.971 665.887 142.698C666.049 142.698 666.174 142.68 666.336 142.662L666.372 143.254L666.408 143.846V143.828Z" stroke="white" stroke-opacity="0.6" stroke-width="0.35" stroke-miterlimit="10"/>
<path d="M1016.22 200.559C1015.83 200.523 1015.41 200.487 1015 200.469C995.362 199.178 975.688 198.066 956.013 197.133C955.618 197.115 955.204 197.097 954.827 197.079C935.314 196.147 915.783 195.375 896.234 194.784C895.839 194.784 895.444 194.766 895.048 194.748C875.625 194.156 856.202 193.725 836.761 193.456C836.365 193.456 835.97 193.456 835.575 193.456C816.188 193.187 796.8 193.098 777.395 193.151C777 193.151 776.604 193.151 776.209 193.151C756.822 193.223 737.435 193.438 718.029 193.851C717.634 193.851 717.239 193.851 716.844 193.869C697.384 194.263 677.943 194.819 658.502 195.555C658.107 195.555 657.694 195.573 657.298 195.609C637.731 196.344 618.182 197.241 598.633 198.317C598.238 198.317 597.843 198.353 597.447 198.389C577.737 199.465 558.044 200.72 538.369 202.137C537.974 202.155 537.561 202.191 537.165 202.227C537.201 201.976 537.255 201.725 537.291 201.456C537.309 201.312 537.345 201.169 537.381 201.025C537.776 200.989 538.19 200.971 538.585 200.936C558.242 199.519 577.934 198.281 597.627 197.205C598.022 197.169 598.436 197.151 598.813 197.133C618.344 196.075 637.875 195.16 657.424 194.425C657.819 194.425 658.215 194.407 658.61 194.389C678.033 193.654 697.474 193.098 716.897 192.703C717.293 192.703 717.688 192.685 718.083 192.685C737.453 192.291 756.822 192.057 776.191 191.986C776.586 191.986 776.964 191.986 777.377 191.986C796.746 191.932 816.116 192.021 835.485 192.291C835.88 192.291 836.275 192.291 836.671 192.291C856.094 192.542 875.517 192.99 894.922 193.582C895.318 193.582 895.713 193.582 896.108 193.618C915.621 194.21 935.134 194.981 954.629 195.914C955.025 195.914 955.438 195.949 955.833 195.967C975.508 196.9 995.165 198.012 1014.79 199.286C1015.18 199.303 1015.59 199.339 1016.01 199.375C1016.08 199.77 1016.15 200.182 1016.24 200.577L1016.22 200.559Z" stroke="white" stroke-opacity="0.6" stroke-width="0.35" stroke-miterlimit="10"/>
<path d="M533.536 245.757V246.349C533.536 246.547 533.536 246.744 533.536 246.941H1019.98C1019.98 246.546 1019.98 246.152 1019.98 245.757H533.518H533.536Z" stroke="white" stroke-opacity="0.6" stroke-width="0.35" stroke-miterlimit="10"/>
<path d="M1013.87 292.319C994.302 293.574 974.717 294.686 955.115 295.619C954.719 295.637 954.324 295.673 953.929 295.673C934.505 296.588 915.046 297.341 895.605 297.933C895.21 297.951 894.815 297.969 894.419 297.969C875.086 298.561 855.753 298.991 836.419 299.242C836.024 299.242 835.629 299.242 835.233 299.242C815.936 299.511 796.639 299.601 777.359 299.547C776.964 299.547 776.569 299.547 776.173 299.547C756.858 299.475 737.56 299.26 718.263 298.865C717.868 298.865 717.472 298.848 717.077 298.848C697.69 298.453 678.339 297.897 658.969 297.18C658.574 297.18 658.161 297.144 657.783 297.126C638.288 296.39 618.811 295.494 599.316 294.435C598.921 294.435 598.508 294.399 598.112 294.382C578.456 293.305 558.817 292.068 539.196 290.669C538.783 290.633 538.387 290.615 537.974 290.579C538.028 290.83 538.082 291.099 538.136 291.35C538.154 291.494 538.19 291.637 538.226 291.781C538.621 291.817 539.034 291.835 539.447 291.87C559.05 293.269 578.671 294.507 598.31 295.583C598.705 295.601 599.118 295.637 599.514 295.655C618.973 296.713 638.432 297.61 657.909 298.327C658.304 298.345 658.718 298.363 659.113 298.381C678.446 299.099 697.78 299.655 717.149 300.049C717.544 300.049 717.922 300.049 718.335 300.067C737.596 300.462 756.894 300.677 776.173 300.749C776.569 300.749 776.964 300.749 777.359 300.749C781.15 300.749 784.959 300.749 788.751 300.749C804.239 300.749 819.709 300.641 835.179 300.444C835.575 300.444 835.952 300.444 836.365 300.426C855.681 300.175 874.996 299.744 894.294 299.17C894.689 299.17 895.066 299.152 895.479 299.135C914.903 298.543 934.308 297.789 953.713 296.875C954.108 296.857 954.522 296.839 954.917 296.821C974.502 295.888 994.069 294.794 1013.62 293.521C1014.01 293.503 1014.43 293.467 1014.84 293.431C1014.93 293.036 1015.02 292.642 1015.09 292.247C1014.68 292.265 1014.28 292.301 1013.87 292.337V292.319Z" stroke="white" stroke-opacity="0.6" stroke-width="0.35" stroke-miterlimit="10"/>
<path d="M998.435 340.638C979.73 342.862 960.972 344.781 942.16 346.396C941.729 346.431 941.315 346.467 940.884 346.503C922.719 348.064 904.499 349.319 886.28 350.324C885.885 350.341 885.489 350.377 885.094 350.395C867.288 351.346 849.464 352.045 831.622 352.458C831.227 352.476 830.813 352.476 830.418 352.494C812.738 352.906 795.039 353.05 777.359 352.942C776.964 352.942 776.569 352.942 776.173 352.942C758.439 352.817 740.723 352.44 723.042 351.776C722.647 351.776 722.234 351.758 721.839 351.723C703.871 351.059 685.939 350.108 668.007 348.907C667.594 348.871 667.181 348.853 666.767 348.817C648.35 347.561 629.969 346.019 611.642 344.172C611.211 344.136 610.798 344.1 610.348 344.046C591.32 342.145 572.346 339.939 553.408 337.392C552.959 337.338 552.51 337.266 552.061 337.212C552.187 337.535 552.33 337.858 552.456 338.181C552.51 338.271 552.546 338.378 552.582 338.468C553.031 338.522 553.48 338.593 553.929 338.647C572.814 341.158 591.77 343.364 610.762 345.266C611.193 345.319 611.624 345.355 612.055 345.391C630.347 347.203 648.674 348.745 667.037 349.983C667.468 350.019 667.881 350.037 668.295 350.072C686.172 351.274 704.05 352.225 721.964 352.888C722.36 352.888 722.773 352.924 723.168 352.924C740.831 353.57 758.493 353.965 776.155 354.09C776.551 354.09 776.946 354.09 777.341 354.09C781.132 354.108 784.942 354.126 788.733 354.126C802.568 354.126 816.403 353.965 830.238 353.642C830.634 353.642 831.047 353.642 831.442 353.624C849.248 353.193 867.018 352.512 884.789 351.561C885.184 351.561 885.579 351.525 885.974 351.489C904.158 350.503 922.323 349.247 940.435 347.705C940.866 347.687 941.297 347.651 941.729 347.597C960.487 345.983 979.209 344.1 997.86 341.876C998.327 341.822 998.776 341.768 999.226 341.714C999.423 341.284 999.603 340.871 999.783 340.459C999.333 340.531 998.884 340.584 998.417 340.62L998.435 340.638Z" stroke="white" stroke-opacity="0.6" stroke-width="0.35" stroke-miterlimit="10"/>
<path d="M966.973 392.939C950.317 395.396 933.607 397.513 916.843 399.253C916.34 399.306 915.873 399.378 915.37 399.414C899.81 401.046 884.214 402.356 868.564 403.36C868.15 403.396 867.719 403.414 867.306 403.432C852.411 404.4 837.479 405.082 822.548 405.494C822.153 405.512 821.758 405.512 821.362 405.53C806.683 405.925 792.003 406.05 777.341 405.907C776.946 405.907 776.551 405.907 776.155 405.907C761.422 405.763 746.688 405.351 731.972 404.651C731.577 404.651 731.164 404.633 730.751 404.598C715.568 403.898 700.385 402.894 685.256 401.602C684.807 401.548 684.376 401.513 683.927 401.477C667.881 400.114 651.908 398.428 635.952 396.401C635.449 396.347 634.964 396.275 634.461 396.221C617.104 394.015 599.819 391.433 582.624 388.473C582.067 388.383 581.492 388.276 580.953 388.186C581.258 388.617 581.6 389.065 581.905 389.495C581.959 389.567 582.013 389.639 582.067 389.711C582.642 389.8 583.199 389.908 583.774 389.998C600.879 392.939 618.075 395.504 635.342 397.71C635.845 397.782 636.366 397.836 636.869 397.907C652.698 399.898 668.6 401.584 684.537 402.947C684.969 403.001 685.418 403.037 685.867 403.073C700.888 404.346 715.945 405.333 731.056 406.032C731.451 406.05 731.865 406.086 732.278 406.086C746.868 406.768 761.494 407.18 776.137 407.324C776.533 407.324 776.928 407.324 777.323 407.324C781.078 407.36 784.834 407.378 788.589 407.378H788.715C799.495 407.378 810.276 407.234 821.021 406.947C821.416 406.947 821.811 406.947 822.207 406.911C837.048 406.517 851.872 405.853 866.641 404.884C867.072 404.867 867.486 404.831 867.899 404.795C883.441 403.79 898.947 402.499 914.382 400.867C914.885 400.813 915.37 400.777 915.873 400.705C932.547 398.966 949.167 396.867 965.716 394.41C966.291 394.338 966.866 394.248 967.423 394.159C967.818 393.657 968.213 393.154 968.608 392.652C968.033 392.742 967.476 392.832 966.902 392.903L966.973 392.939Z" stroke="white" stroke-opacity="0.6" stroke-width="0.35" stroke-miterlimit="10"/>
<path d="M900.798 452.54C900.115 452.935 899.432 453.347 898.75 453.742C897.761 453.867 896.755 453.993 895.767 454.101C885.148 455.32 874.475 456.36 863.784 457.221C863.048 457.275 862.275 457.347 861.52 457.401C852.087 458.136 842.618 458.71 833.131 459.158C832.592 459.176 832.053 459.212 831.514 459.23C822.656 459.625 813.78 459.912 804.886 460.055C804.455 460.055 804.041 460.073 803.628 460.073C798.669 460.163 793.71 460.199 788.769 460.199H788.571C784.834 460.199 781.096 460.181 777.377 460.127C776.982 460.127 776.586 460.127 776.191 460.127C767.315 460.001 758.457 459.768 749.635 459.392C749.186 459.392 748.754 459.356 748.305 459.338C738.962 458.943 729.655 458.405 720.347 457.724C719.772 457.67 719.179 457.634 718.604 457.598C708.309 456.827 698.049 455.894 687.826 454.782C687.053 454.71 686.298 454.621 685.526 454.531C673.487 453.204 661.503 451.643 649.554 449.832C648.566 449.688 647.596 449.545 646.625 449.401C646.536 449.348 646.446 449.294 646.374 449.24C645.763 448.845 645.152 448.451 644.541 448.056C645.493 448.218 646.464 448.343 647.416 448.505C659.616 450.388 671.87 452.038 684.124 453.419C684.879 453.509 685.633 453.598 686.388 453.67C696.827 454.836 707.285 455.822 717.76 456.629C718.335 456.683 718.91 456.719 719.485 456.755C728.954 457.472 738.423 458.046 747.928 458.459C748.359 458.477 748.808 458.513 749.257 458.513C758.241 458.907 767.243 459.158 776.245 459.266C776.64 459.266 777.018 459.284 777.431 459.284C786.325 459.392 795.219 459.374 804.095 459.23C804.508 459.23 804.94 459.23 805.353 459.212C814.391 459.051 823.411 458.764 832.43 458.333C832.969 458.333 833.508 458.28 834.048 458.262C843.714 457.795 853.381 457.168 863.03 456.378C863.766 456.325 864.503 456.253 865.24 456.199C876.164 455.284 887.035 454.19 897.923 452.899C898.911 452.773 899.882 452.666 900.852 452.54H900.798Z" stroke="white" stroke-opacity="0.6" stroke-width="0.35" stroke-miterlimit="10"/>
</g>
<defs>
<clipPath id="clip0_269_132">
<rect width="1528" height="659" fill="white"/>
</clipPath>
</defs>
</svg>
