<svg width="178" height="178" viewBox="0 0 178 178" fill="none" xmlns="http://www.w3.org/2000/svg">
<path d="M53.5099 15.0059C53.5099 15.0059 53.4709 15.0059 53.4515 15.0123C48.8438 15.5573 44.1582 16.2125 39.5181 16.965C39.2061 17.0169 38.8942 17.0688 38.5822 17.1207L38.4913 17.1531C38.2378 17.3283 37.9909 17.5099 37.7439 17.6916C29.7504 23.4198 22.8292 30.3871 17.1428 38.4118C17.1233 38.4312 17.1103 38.4572 17.0908 38.4831C16.9933 38.6259 16.8958 38.7621 16.7983 38.9048L17.3052 38.814C17.3377 38.814 17.3637 38.8075 17.3962 38.7945C23.6221 37.6917 30.0299 36.7121 36.4441 35.8753C36.5871 35.8558 36.7236 35.8363 36.8666 35.8169L36.9705 35.7974C36.9705 35.7974 37.003 35.739 37.0225 35.7066C37.094 35.5833 37.1655 35.4536 37.2435 35.3303C41.8316 27.4938 47.3361 20.7925 53.6204 15.4146C53.6399 15.4016 53.6529 15.3886 53.6659 15.3691C53.7374 15.3108 53.7959 15.2524 53.8674 15.2005L54.2053 14.915C53.9713 14.941 53.7374 14.9734 53.5034 14.9994L53.5099 15.0059ZM36.7106 35.4147C30.3353 36.2386 23.9535 37.2052 17.7407 38.308C23.5181 30.2379 30.5693 23.2511 38.6992 17.5359C43.4173 16.7639 48.1809 16.0827 52.8731 15.5184C46.6797 20.9222 41.2467 27.6105 36.7106 35.4147Z" stroke="#637425" stroke-opacity="0.4" stroke-miterlimit="10"/>
<path d="M89.1168 1.19466V1.62282L88.7593 1.62282C88.5254 1.62282 88.3044 1.62282 88.077 1.6293C87.8235 1.6293 87.57 1.6293 87.3166 1.64228C87.0371 1.64228 86.7902 1.64876 86.5497 1.66174H86.5042C86.5042 1.66174 86.4588 1.66174 86.4328 1.66174C85.5229 1.68769 84.6196 1.7331 83.7163 1.79148C83.7163 1.79148 83.7141 1.79148 83.7098 1.79148C82.0786 1.8823 80.4474 2.03151 78.8357 2.21964H78.8292C64.7139 3.87388 51.2744 8.895 39.5246 16.9586C39.2646 17.1338 39.0047 17.3154 38.7448 17.4971L38.6213 17.3219L38.4978 17.1468C38.4978 17.1468 38.5238 17.1273 38.5368 17.1208C52.6456 7.23427 69.2175 1.73959 86.4848 1.22709H86.5757C86.8227 1.22061 87.0436 1.21412 87.2711 1.20763H87.3036C87.5766 1.20115 87.8235 1.19466 88.064 1.19466H88.0834C88.3369 1.19466 88.5903 1.18817 88.8503 1.18817H89.1298L89.1168 1.19466Z" stroke="#637425" stroke-opacity="0.4" stroke-miterlimit="10"/>
<path d="M88.8764 176.694C88.8764 176.694 88.8569 176.694 88.8439 176.694C88.8179 176.694 88.7919 176.694 88.7659 176.694C88.142 176.694 87.5181 176.687 86.8943 176.668C86.0234 176.648 85.1591 176.609 84.2947 176.564C82.696 176.48 81.1038 176.343 79.5181 176.168C79.4986 176.168 79.4856 176.168 79.4597 176.162C66.5076 174.741 54.0559 170.473 42.943 163.59C42.6831 163.434 42.4231 163.272 42.1632 163.11C42.1177 163.077 42.0657 163.045 42.0202 163.019C33.1819 157.388 25.4938 150.304 19.177 141.961C19.06 141.818 18.9496 141.669 18.8456 141.526C18.8196 141.488 18.7871 141.455 18.7611 141.416C14.6019 135.85 11.112 129.791 8.38903 123.401C8.34354 123.291 8.29805 123.181 8.24606 123.07C8.22656 123.025 8.21357 122.986 8.19408 122.947C5.9715 117.647 4.26883 112.107 3.14454 106.47C3.12504 106.379 3.10555 106.288 3.08605 106.197C3.07955 106.139 3.06654 106.093 3.05354 106.035C2.03974 100.858 1.49384 95.5385 1.43536 90.2255C1.43536 90.1541 1.43536 90.0828 1.43536 90.0049V89.7973C1.43536 89.5897 1.43536 89.3822 1.43536 89.1746C1.43536 84.0951 1.87726 78.9961 2.7416 74.0139C2.7481 73.9555 2.7611 73.9036 2.7741 73.8452C2.7936 73.7544 2.8066 73.6636 2.8196 73.5793C3.82691 67.9743 5.3931 62.4602 7.47921 57.1666C7.49871 57.1277 7.51171 57.0822 7.52471 57.0498C7.5702 56.9395 7.61568 56.8228 7.66117 56.7125C10.1892 50.4069 13.4646 44.3803 17.3963 38.8142C17.4093 38.7947 17.4288 38.7688 17.4418 38.7429L17.2664 38.6196L17.0909 38.4963C16.9934 38.6391 16.8959 38.7753 16.7985 38.918C12.9122 44.484 9.6823 50.4847 7.18027 56.7709C7.16077 56.8098 7.14777 56.8552 7.13477 56.8876C7.08928 57.0044 7.0438 57.1147 7.00481 57.2315C4.9447 62.5185 3.39149 68.0262 2.39068 73.6117C2.37768 73.6636 2.37117 73.7155 2.35817 73.7674C2.33867 73.8582 2.32569 73.949 2.31269 74.0463C1.44836 79.0156 1.01294 84.1016 1.01294 89.1681C1.01294 89.3757 1.01294 89.5833 1.01294 89.7908L1.01294 90.0049C1.01294 90.0763 1.01294 90.1476 1.01294 90.219C1.07143 95.5256 1.61733 100.826 2.61814 105.996C2.63763 106.087 2.65713 106.184 2.67662 106.275C2.68312 106.327 2.69611 106.379 2.70911 106.431C3.8269 112.062 5.51008 117.589 7.71966 122.876C7.76515 122.992 7.81714 123.109 7.86263 123.226C7.88213 123.258 7.89513 123.297 7.90813 123.33C10.5986 129.7 14.0495 135.746 18.1632 141.299C18.2737 141.455 18.3972 141.617 18.5076 141.773C18.5271 141.799 18.5466 141.825 18.5661 141.851C24.8179 150.18 32.402 157.271 41.1364 162.941C41.3573 163.084 41.5783 163.226 41.7992 163.369C41.8317 163.388 41.8642 163.408 41.8902 163.427C55.9991 172.386 72.337 177.122 89.1298 177.122V176.694H88.8829H88.8764Z" stroke="#637425" stroke-opacity="0.4" stroke-miterlimit="10"/>
<path d="M53.6724 15.3821L53.3929 15.0577C63.2776 6.61785 74.7219 1.84325 86.4912 1.23345H86.5367C86.9136 1.21399 87.3036 1.20102 87.6935 1.18804C87.869 1.18155 88.0509 1.17507 88.2394 1.17507C88.4993 1.17507 88.7398 1.16858 88.9868 1.16858H89.0907V1.59674H88.9868C88.7463 1.59674 88.5058 1.59674 88.2719 1.60322C88.0639 1.60322 87.8884 1.60322 87.713 1.6162C87.3231 1.62269 86.9396 1.64215 86.5562 1.66161H86.5107C74.8519 2.26492 63.4985 7.00708 53.6854 15.3821H53.6724Z" stroke="#637425" stroke-opacity="0.4" stroke-miterlimit="10"/>
<path d="M89.0842 177.096C77.4059 177.096 65.9226 172.996 55.8885 165.231C48.9413 159.866 42.852 152.937 37.7699 144.64C34.2151 138.834 31.2256 132.451 28.8991 125.672C26.9169 119.911 25.4027 113.839 24.4019 107.624C23.4726 101.863 22.9852 95.9341 22.9397 89.9918C22.9397 89.7063 22.9397 89.4144 22.9397 89.1289C22.9397 83.4915 23.3426 77.8541 24.142 72.3789C25.0323 66.229 26.4295 60.1764 28.3012 54.3833C30.4783 47.6496 33.2923 41.2986 36.6521 35.499L37.0225 35.7131C33.6757 41.4867 30.8812 47.8118 28.7106 54.5131C26.8455 60.2802 25.4482 66.3134 24.5644 72.4373C23.7715 77.8931 23.3686 83.511 23.3686 89.1289C23.3686 89.4144 23.3686 89.7063 23.3686 89.9853C23.4076 95.9081 23.9015 101.818 24.8243 107.553C25.8187 113.741 27.3264 119.788 29.302 125.529C31.6221 132.276 34.592 138.633 38.1338 144.413C43.1834 152.665 49.2467 159.548 56.1484 164.887C66.1111 172.587 77.4969 176.661 89.0842 176.661V177.089V177.096Z" stroke="#637425" stroke-opacity="0.4" stroke-miterlimit="10"/>
<path d="M48.7791 52.9301L48.844 52.6511C50.4037 45.8331 52.4054 39.4107 54.7969 33.5592L54.8489 33.436L54.9789 33.423C60.6913 32.9235 66.4882 32.5277 72.2201 32.2553L72.4996 32.2423L72.4411 32.5148C71.2063 38.3663 70.1665 44.8016 69.3542 51.6521L69.3347 51.8337H69.1527C62.433 52.0867 55.6742 52.45 49.078 52.9106L48.792 52.9301H48.7791ZM55.1413 33.8382C52.8148 39.5534 50.8587 45.8201 49.3249 52.463C55.7782 52.0154 62.3745 51.6651 68.9448 51.4186C69.7441 44.7237 70.7579 38.4311 71.9602 32.6899C66.3712 32.9559 60.7173 33.3451 55.1478 33.8317L55.1413 33.8382Z" stroke="#637425" stroke-opacity="0.4" stroke-miterlimit="10"/>
<path d="M66.5207 14.0847L66.1892 13.8122C72.5385 6.15731 79.8367 1.80438 87.2842 1.22053H87.4077C87.4922 1.20755 87.5702 1.20107 87.6547 1.19458L87.7132 1.17512L87.7457 1.18809C87.9471 1.17512 88.1616 1.16214 88.3695 1.16214C88.571 1.15566 88.766 1.14917 88.9739 1.14917H89.0454V1.57733H88.9739C88.779 1.57733 88.584 1.57733 88.3825 1.5903C88.1616 1.5903 87.9471 1.60328 87.7327 1.62274H87.6742H87.6677C87.5962 1.62274 87.5182 1.62922 87.4402 1.63571H87.3167C79.9861 2.21956 72.792 6.5206 66.5207 14.0847Z" stroke="#637425" stroke-opacity="0.4" stroke-miterlimit="10"/>
<path d="M89.0518 177.07C81.6432 177.07 74.3125 173.352 67.8593 166.32C63.1931 161.234 59.0599 154.572 55.5766 146.508C53.0615 140.696 50.9429 134.26 49.2727 127.371C47.8235 121.39 46.7122 115.078 45.9779 108.61C45.289 102.538 44.9251 96.2777 44.8926 89.9981C44.8926 89.7062 44.8926 89.4077 44.8926 89.1158C44.8926 83.1541 45.1915 77.1923 45.7894 71.3992C46.4523 64.9249 47.4856 58.6194 48.8503 52.6576L49.2663 52.7549C47.9015 58.6972 46.8747 64.9898 46.2118 71.4446C45.6204 77.2247 45.3215 83.1735 45.3215 89.1158C45.3215 89.4077 45.3215 89.7062 45.3215 89.9981C45.3475 96.2647 45.7114 102.512 46.4003 108.571C47.1347 115.026 48.2394 121.318 49.6822 127.28C51.3459 134.144 53.458 140.553 55.96 146.346C59.4238 154.364 63.5376 160.988 68.1712 166.041C74.54 172.983 81.7601 176.654 89.0518 176.654V177.083V177.07Z" stroke="#637425" stroke-opacity="0.4" stroke-miterlimit="10"/>
<path d="M78.1663 13.3062L77.7764 13.1376C80.9088 5.84593 84.3596 1.83034 88.0379 1.20756C88.0899 1.19459 88.1549 1.1881 88.2199 1.18162C88.2524 1.17513 88.3044 1.16864 88.3564 1.16215C88.5643 1.1362 88.7723 1.12323 88.9802 1.12323L89.0192 1.55139C88.7918 1.55139 88.6033 1.56436 88.4084 1.59031C88.3564 1.59031 88.3174 1.5968 88.2784 1.60328C88.2134 1.60328 88.1679 1.61626 88.1289 1.62923H88.0769C84.6261 2.21957 81.1882 6.25463 78.1663 13.3062Z" stroke="#637425" stroke-opacity="0.4" stroke-miterlimit="10"/>
<path d="M89.0195 177.044C85.3216 177.044 81.8253 173.632 78.6149 166.898C76.2623 161.961 74.1828 155.461 72.4151 147.579C71.1153 141.76 70.0105 135.305 69.1462 128.39C68.3793 122.311 67.7945 115.856 67.411 109.214C67.0406 102.908 66.8456 96.4402 66.8326 89.9919C66.8326 89.6935 66.8326 89.3886 66.8326 89.0837C66.8326 82.9532 66.9951 76.7904 67.3135 70.7767C67.6645 64.1662 68.2104 57.7179 68.9317 51.6005L69.3542 51.6524C68.6328 57.7568 68.0869 64.1987 67.736 70.7962C67.4175 76.8034 67.2551 82.9532 67.2551 89.0772C67.2551 89.3821 67.2551 89.6805 67.2551 89.9854C67.2681 96.4337 67.463 102.889 67.8334 109.188C68.2234 115.824 68.8083 122.266 69.5686 128.338C70.4395 135.24 71.5377 141.682 72.831 147.488C74.5857 155.338 76.6588 161.812 78.9984 166.716C82.0853 173.191 85.5491 176.616 89.0129 176.616V177.044H89.0195Z" stroke="#637425" stroke-opacity="0.4" stroke-miterlimit="10"/>
<path d="M88.766 176.804V1.36324L89.1949 1.31134V176.758L88.766 176.804Z" stroke="#637425" stroke-opacity="0.4" stroke-miterlimit="10"/>
<path d="M88.9481 176.999V176.57C100.945 176.57 110.713 137.303 110.713 89.0382C110.713 40.7732 100.945 1.49955 88.9481 1.49955V1.07788C94.927 1.07788 100.516 10.2638 104.695 26.9425C108.847 43.5303 111.135 65.5869 111.135 89.0382C111.135 112.49 108.847 134.546 104.695 151.134C100.516 167.813 94.927 176.999 88.9481 176.999Z" stroke="#637425" stroke-opacity="0.4" stroke-miterlimit="10"/>
<path d="M88.9087 176.973V176.544C113.026 176.544 132.645 137.277 132.645 89.0122C132.645 40.7472 113.026 1.48004 88.9087 1.48004V1.05188C113.26 1.05188 133.074 40.5137 133.074 89.0122C133.074 137.511 113.26 176.973 88.9087 176.973Z" stroke="#637425" stroke-opacity="0.4" stroke-miterlimit="10"/>
<path d="M88.8766 176.947V176.518C125.114 176.518 154.592 137.251 154.592 88.9863C154.592 40.7213 125.114 1.45416 88.8766 1.45416V1.026C125.348 1.026 155.021 40.4878 155.021 88.9863C155.021 137.485 125.348 176.947 88.8766 176.947Z" stroke="#637425" stroke-opacity="0.4" stroke-miterlimit="10"/>
<path d="M176.961 88.9668C176.961 89.2392 176.961 89.5117 176.961 89.7841C176.961 89.9269 176.961 90.0696 176.961 90.2123C176.883 95.8173 176.279 101.292 175.193 106.599C175.161 106.742 175.135 106.891 175.102 107.027C173.868 112.937 172.028 118.626 169.663 124.043C169.598 124.199 169.533 124.348 169.461 124.497C166.524 131.101 162.8 137.284 158.407 142.921C158.264 143.103 158.128 143.284 157.978 143.466C151.31 151.88 143.141 159.048 133.868 164.569C133.621 164.712 133.374 164.861 133.127 165.004C120.727 172.224 106.41 176.512 91.1447 176.895C90.9952 176.895 90.8522 176.901 90.7027 176.901C90.4493 176.908 90.1958 176.914 89.9424 176.914C89.6824 176.914 89.416 176.921 89.156 176.921H88.8766V176.492C88.9936 176.492 89.1105 176.492 89.2275 176.492C89.455 176.492 89.6824 176.492 89.9099 176.492C90.1633 176.492 90.4298 176.492 90.6832 176.479C90.8327 176.479 90.9822 176.479 91.1252 176.473H91.1317C91.2486 176.473 91.3591 176.473 91.4696 176.466C92.4054 176.441 93.3413 176.395 94.2706 176.337C95.8823 176.246 97.481 176.097 99.0732 175.915C110.946 174.533 122.105 170.784 132.054 165.14C132.308 164.997 132.561 164.854 132.815 164.705C142.258 159.23 150.589 152.036 157.374 143.57C157.517 143.388 157.666 143.206 157.809 143.025C162.254 137.387 166.024 131.192 168.987 124.569C169.058 124.419 169.123 124.264 169.195 124.115C171.58 118.698 173.432 112.989 174.686 107.066C174.719 106.923 174.745 106.781 174.777 106.638C175.876 101.325 176.487 95.8367 176.558 90.2253C176.558 90.0826 176.558 89.9398 176.558 89.7971C176.558 89.5247 176.558 89.2522 176.558 88.9797C176.558 83.6667 176.084 78.4639 175.167 73.4169C175.141 73.2741 175.115 73.1249 175.089 72.9822C173.991 67.0918 172.308 61.4155 170.098 56.0051C170.033 55.8494 169.975 55.7002 169.91 55.551C167.187 48.9989 163.691 42.849 159.538 37.2116C159.421 37.0495 159.297 36.8938 159.18 36.7316C153.104 28.6096 145.656 21.5709 137.176 15.9595C136.903 15.7778 136.623 15.5962 136.344 15.421C125.224 8.23968 112.376 3.5105 98.5793 1.986C96.9741 1.80436 95.3494 1.67461 93.7182 1.59028C92.8408 1.53838 91.957 1.49946 91.0732 1.48648C90.4623 1.46702 89.8384 1.46053 89.2275 1.46053C89.2015 1.46053 89.182 1.46053 89.156 1.46053H88.8766V0.999939C106.761 0.999939 123.418 6.34541 137.331 15.5248C137.604 15.7065 137.877 15.8816 138.15 16.0698C146.488 21.7072 153.812 28.7264 159.791 36.803C159.908 36.9651 160.032 37.1273 160.149 37.2895C164.262 42.9269 167.713 49.0638 170.41 55.5964C170.475 55.7521 170.534 55.9013 170.592 56.0506C172.789 61.4544 174.459 67.1243 175.544 72.9952C175.57 73.1379 175.596 73.2871 175.629 73.4298C176.532 78.4704 177 83.6667 177 88.9668H176.961Z" stroke="#637425" stroke-opacity="0.4" stroke-miterlimit="10"/>
<path d="M54.6606 33.8837L54.7906 33.5593C58.0075 25.6968 61.8418 19.0474 66.1895 13.8122L66.248 13.7408H66.3389C70.2382 13.423 74.1505 13.1765 77.9588 13.0078L78.2967 12.9948L78.1602 13.3062C75.9896 18.3597 74.0595 24.821 72.4283 32.5214L72.3958 32.6836H72.2333C66.5144 32.9625 60.7175 33.3582 55.0116 33.8577L54.6606 33.8902V33.8837ZM66.4624 14.1495C62.2252 19.2745 58.4819 25.7487 55.3235 33.3907C60.867 32.9106 66.4884 32.5279 72.0449 32.2619C73.6436 24.7691 75.5217 18.4376 77.6338 13.4424C73.9685 13.6111 70.2122 13.8511 66.4624 14.1431V14.1495Z" stroke="#637425" stroke-opacity="0.4" stroke-miterlimit="10"/>
<path d="M53.562 15.4275L53.51 15.0059C57.7277 14.5064 62.0429 14.0782 66.3451 13.7344L66.3776 14.1625C62.0819 14.5064 57.7732 14.9345 53.562 15.434V15.4275Z" stroke="#637425" stroke-opacity="0.4" stroke-miterlimit="10"/>
<path d="M138.111 16.0698C137.832 16.0308 137.552 15.9984 137.273 15.9595C137.227 15.9595 137.188 15.9465 137.149 15.94C132.769 15.3626 128.344 14.8761 124.002 14.4804C123.794 14.4609 123.58 14.4415 123.372 14.422C123.333 14.422 123.287 14.4155 123.255 14.4155C119.408 14.0717 115.495 13.7927 111.609 13.5787C111.46 13.5722 111.31 13.5592 111.161 13.5527C111.122 13.5527 111.089 13.5527 111.05 13.5527C107.417 13.3646 103.778 13.2348 100.223 13.157C100.113 13.157 99.9959 13.157 99.8854 13.1505H99.7814C96.2331 13.0791 92.6653 13.0662 89.1884 13.1181H88.9804C88.909 13.1181 88.8375 13.1181 88.7595 13.1181C85.2242 13.1635 81.6433 13.2673 78.108 13.4295C78.0625 13.4295 78.017 13.4295 77.9715 13.4295L77.952 13.0013C78.0625 13.0013 78.173 12.9948 78.29 12.9883C81.7603 12.8326 85.2826 12.7353 88.753 12.6834C88.8245 12.6834 88.896 12.6834 88.961 12.6834H89.1819C92.6003 12.6315 96.0966 12.6445 99.58 12.7159C99.6839 12.7159 99.7814 12.7159 99.8854 12.7159C99.9309 12.7159 99.9829 12.7159 100.028 12.7159C103.518 12.7872 107.093 12.9105 110.66 13.0921C110.829 13.0986 111.005 13.1116 111.18 13.1181C111.193 13.1181 111.213 13.1181 111.226 13.1181C115.034 13.3192 118.881 13.5916 122.657 13.9225C122.904 13.9419 123.151 13.9679 123.404 13.9874H123.411C127.674 14.3701 132.002 14.8437 136.311 15.3951C136.636 15.434 136.961 15.4794 137.286 15.5183C137.559 15.7 137.832 15.8751 138.105 16.0633L138.111 16.0698Z" stroke="#637425" stroke-opacity="0.4" stroke-miterlimit="10"/>
<path d="M38.6475 17.5358C38.3421 17.5877 38.0431 17.6332 37.7377 17.6915C37.9846 17.5099 38.2316 17.3283 38.485 17.1531C38.498 17.1466 38.511 17.1336 38.524 17.1272C38.5435 17.1272 38.5565 17.1272 38.576 17.1207L38.6475 17.5423V17.5358Z" stroke="#637425" stroke-opacity="0.4" stroke-miterlimit="10"/>
<path d="M36.8666 35.8171L36.8146 35.3955C42.8584 34.6105 48.9673 33.9488 54.9786 33.4233L55.0176 33.8515C49.0128 34.3705 42.9104 35.0322 36.8731 35.8171H36.8666Z" stroke="#637425" stroke-opacity="0.4" stroke-miterlimit="10"/>
<path d="M160.11 37.283C159.954 37.2571 159.804 37.2376 159.648 37.2117C159.603 37.2052 159.557 37.1987 159.512 37.1922C153.344 36.2516 147.093 35.4342 140.919 34.766C140.789 34.7465 140.665 34.7335 140.535 34.7206C140.49 34.7206 140.444 34.7141 140.392 34.7011C134.608 34.0783 128.76 33.5594 123.008 33.1831C122.904 33.1766 122.807 33.1701 122.703 33.1636C122.651 33.1636 122.605 33.1571 122.553 33.1571C117.075 32.7874 111.486 32.5214 105.929 32.3657C105.838 32.3657 105.747 32.3657 105.663 32.3592C105.611 32.3592 105.559 32.3592 105.507 32.3592C100.054 32.2035 94.563 32.1516 89.182 32.2165H88.974C88.9025 32.2165 88.8311 32.2165 88.7531 32.2165C83.3526 32.2684 77.8481 32.4241 72.3892 32.6836C72.3307 32.6836 72.2787 32.6836 72.2202 32.6901L72.2007 32.2619C72.2917 32.2619 72.3827 32.2554 72.4736 32.2489C77.9001 31.9959 83.3721 31.8337 88.7466 31.7819C88.8181 31.7819 88.8895 31.7819 88.961 31.7819H89.1755C94.5305 31.7235 99.9895 31.7754 105.409 31.9246C105.494 31.9246 105.578 31.9246 105.663 31.9246C105.721 31.9246 105.78 31.9246 105.832 31.9246C111.356 32.0803 116.912 32.3462 122.358 32.7095C122.475 32.7095 122.599 32.7225 122.716 32.729C122.748 32.729 122.781 32.729 122.807 32.7355C128.526 33.1117 134.342 33.6177 140.093 34.2405C140.249 34.2535 140.399 34.2729 140.555 34.2859C140.574 34.2859 140.594 34.2859 140.613 34.2924C146.755 34.9541 152.974 35.7585 159.122 36.6992C159.31 36.7316 159.499 36.7576 159.687 36.7835C159.7 36.7835 159.707 36.7835 159.72 36.7835C159.837 36.9457 159.96 37.1079 160.077 37.27L160.11 37.283Z" stroke="#637425" stroke-opacity="0.4" stroke-miterlimit="10"/>
<path d="M17.3056 38.8074C17.1366 38.8398 16.9677 38.8658 16.7987 38.8982C16.8962 38.7555 16.9937 38.6193 17.0912 38.4766C17.1107 38.4571 17.1236 38.4312 17.1431 38.4052C17.1756 38.3987 17.2016 38.3922 17.2276 38.3857L17.2666 38.5933L17.3056 38.8009V38.8074Z" stroke="#637425" stroke-opacity="0.4" stroke-miterlimit="10"/>
<path d="M170.553 56.0505C170.442 56.031 170.332 56.0181 170.221 56.0051C170.169 56.0051 170.124 55.9921 170.072 55.9856C163.235 55.1553 156.314 54.4352 149.51 53.8448C149.406 53.8383 149.308 53.8254 149.204 53.8189C149.146 53.8189 149.1 53.8124 149.042 53.8059C142.472 53.235 135.758 52.7485 129.058 52.3852C128.967 52.3787 128.883 52.3722 128.792 52.3657C128.733 52.3657 128.675 52.3657 128.623 52.3593C122.085 52.0025 115.502 51.7365 109.048 51.5873C108.964 51.5873 108.879 51.5808 108.795 51.5808C108.736 51.5808 108.678 51.5808 108.613 51.5808C102.082 51.4251 95.5504 51.3667 89.1946 51.4121H88.7656C82.2669 51.4575 75.7291 51.6067 69.3278 51.8403C69.2693 51.8403 69.2043 51.8403 69.1458 51.8468V51.6327L69.1263 51.4186C69.2108 51.4186 69.2953 51.4186 69.3798 51.4121C75.7681 51.1721 82.2864 51.0294 88.7656 50.984H89.1946C95.5309 50.9386 102.056 50.9969 108.561 51.1526C108.645 51.1526 108.717 51.1526 108.801 51.1526C108.866 51.1526 108.931 51.1526 108.996 51.1526C115.437 51.3083 122 51.5678 128.525 51.9181C128.623 51.9181 128.72 51.9311 128.818 51.9376C128.863 51.9376 128.909 51.9376 128.961 51.9441C135.641 52.3138 142.348 52.7874 148.899 53.3583C149.016 53.3648 149.126 53.3777 149.243 53.3907C149.282 53.3907 149.328 53.3972 149.36 53.3972C156.151 53.9876 163.06 54.7076 169.883 55.525C170.013 55.5445 170.143 55.5575 170.273 55.5704C170.306 55.5704 170.338 55.5769 170.371 55.5834C170.436 55.7391 170.494 55.8883 170.553 56.0375V56.0505Z" stroke="#637425" stroke-opacity="0.4" stroke-miterlimit="10"/>
<path d="M49.0654 52.9107C48.9744 52.9172 48.8769 52.9237 48.7859 52.9301C42.0077 53.3972 35.2489 53.9746 28.6787 54.6493C28.6332 54.6493 28.5877 54.6557 28.5357 54.6622C28.4317 54.6752 28.3148 54.6817 28.2108 54.6947C21.2701 55.3953 14.2904 56.2192 7.47968 57.1468C7.44069 57.1468 7.3952 57.1598 7.36271 57.1663C7.24573 57.1858 7.11576 57.1987 6.99878 57.2182C7.04427 57.1014 7.08975 56.9912 7.12874 56.8744C7.14824 56.8355 7.16124 56.79 7.17424 56.7576C7.21973 56.7576 7.25872 56.7446 7.29772 56.7381C7.4147 56.7187 7.54467 56.7057 7.66165 56.6927C14.4659 55.7715 21.4196 54.9542 28.3473 54.2535C28.3928 54.2535 28.4382 54.2471 28.4837 54.2406C28.5942 54.2276 28.7047 54.2211 28.8152 54.2081C35.3659 53.5399 42.1117 52.9626 48.8769 52.502C48.9354 52.502 48.9809 52.4955 49.0394 52.489L49.0524 52.7031L49.0654 52.9172V52.9107Z" stroke="#637425" stroke-opacity="0.4" stroke-miterlimit="10"/>
<path d="M175.59 73.4299C175.447 73.4169 175.297 73.4039 175.148 73.3975C168.045 72.9304 160.928 72.5282 153.812 72.1908C153.669 72.1843 153.52 72.1779 153.383 72.1714C146.326 71.834 139.261 71.5551 132.191 71.341C132.048 71.341 131.905 71.3345 131.762 71.328C124.737 71.114 117.712 70.9583 110.68 70.861C110.537 70.861 110.394 70.861 110.251 70.861C103.239 70.7636 96.2265 70.7312 89.2079 70.7507C89.0649 70.7507 88.9219 70.7507 88.7789 70.7507C81.7668 70.7766 74.7546 70.8545 67.7359 71.0037C67.5929 71.0037 67.45 71.0037 67.307 71.0102C60.2688 71.1529 53.2371 71.354 46.2055 71.62C46.0625 71.62 45.913 71.6264 45.77 71.6394C38.6929 71.9054 31.6222 72.2298 24.5515 72.619C24.4086 72.619 24.2656 72.632 24.1226 72.6449C16.9935 73.0342 9.8708 73.4883 2.75464 74.0008C2.61167 74.0073 2.46219 74.0202 2.31921 74.0332C2.33221 73.9424 2.35171 73.8516 2.36471 73.7543C2.37121 73.7024 2.3842 73.6505 2.3972 73.5986C2.54017 73.5856 2.68965 73.5791 2.83262 73.5661C9.94228 73.0536 17.0649 72.606 24.1876 72.2168C24.3306 72.2038 24.48 72.1973 24.6165 72.1908C31.6807 71.8081 38.7449 71.4772 45.8155 71.2113C45.9585 71.2113 46.1015 71.2048 46.2444 71.1983C53.2696 70.9323 60.3013 70.7312 67.3265 70.5885C67.4694 70.5885 67.6124 70.582 67.7554 70.582C74.7611 70.4393 81.7668 70.3549 88.7724 70.329C88.9154 70.329 89.0519 70.329 89.2014 70.329C96.207 70.3095 103.213 70.342 110.218 70.4393C110.361 70.4393 110.504 70.4393 110.647 70.4393C117.673 70.5301 124.698 70.6923 131.716 70.9064C131.859 70.9064 132.002 70.9064 132.145 70.9193C139.203 71.1334 146.261 71.4124 153.312 71.7497C153.455 71.7497 153.604 71.7627 153.747 71.7692C160.863 72.1065 167.973 72.5087 175.07 72.9693C175.213 72.9758 175.362 72.9888 175.512 73.0017C175.538 73.1445 175.564 73.2937 175.596 73.4364L175.59 73.4299Z" stroke="#637425" stroke-opacity="0.4" stroke-miterlimit="10"/>
<path d="M1.00651 89.7777V89.9918C1.00651 90.0631 1.00651 90.1345 1.00651 90.2059H176.948C176.948 90.0631 176.948 89.9204 176.948 89.7777H1H1.00651Z" stroke="#637425" stroke-opacity="0.4" stroke-miterlimit="10"/>
<path d="M174.738 106.619C167.661 107.073 160.577 107.475 153.487 107.812C153.344 107.819 153.201 107.832 153.058 107.832C146.033 108.162 138.995 108.435 131.963 108.649C131.82 108.656 131.677 108.662 131.534 108.662C124.541 108.876 117.549 109.032 110.556 109.123C110.413 109.123 110.27 109.123 110.127 109.123C103.148 109.22 96.1678 109.252 89.1946 109.233C89.0517 109.233 88.9087 109.233 88.7657 109.233C81.7795 109.207 74.7998 109.129 67.8202 108.986C67.6772 108.986 67.5342 108.98 67.3912 108.98C60.3791 108.837 53.3799 108.636 46.3742 108.377C46.2312 108.377 46.0818 108.364 45.9453 108.357C38.8941 108.091 31.8494 107.767 24.7983 107.384C24.6553 107.384 24.5058 107.371 24.3629 107.365C17.2532 106.975 10.15 106.528 3.05336 106.022C2.90389 106.009 2.76092 106.002 2.61145 105.989C2.63095 106.08 2.65044 106.177 2.66994 106.268C2.67644 106.32 2.68943 106.372 2.70242 106.424C2.8454 106.437 2.99488 106.443 3.14435 106.456C10.2345 106.962 17.3312 107.41 24.4343 107.799C24.5773 107.806 24.7268 107.819 24.8698 107.825C31.9079 108.208 38.9461 108.532 45.9908 108.792C46.1337 108.798 46.2832 108.805 46.4262 108.811C53.4189 109.071 60.4116 109.272 67.4172 109.415C67.5602 109.415 67.6967 109.415 67.8462 109.421C74.8128 109.564 81.7925 109.642 88.7657 109.668C88.9087 109.668 89.0517 109.668 89.1946 109.668C90.5659 109.668 91.9436 109.668 93.3149 109.668C98.9168 109.668 104.512 109.629 110.108 109.557C110.251 109.557 110.387 109.557 110.537 109.551C117.523 109.46 124.509 109.304 131.489 109.097C131.632 109.097 131.768 109.09 131.918 109.084C138.943 108.87 145.961 108.597 152.98 108.266C153.123 108.26 153.273 108.253 153.416 108.247C160.499 107.909 167.576 107.514 174.647 107.053C174.79 107.047 174.939 107.034 175.089 107.021C175.121 106.878 175.154 106.735 175.18 106.593C175.03 106.599 174.887 106.612 174.738 106.625V106.619Z" stroke="#637425" stroke-opacity="0.4" stroke-miterlimit="10"/>
<path d="M169.156 124.095C162.391 124.899 155.606 125.594 148.802 126.177C148.646 126.19 148.496 126.203 148.34 126.216C141.77 126.781 135.18 127.235 128.591 127.598C128.448 127.605 128.305 127.618 128.162 127.624C121.721 127.968 115.275 128.221 108.821 128.37C108.678 128.377 108.529 128.377 108.386 128.383C101.991 128.532 95.5899 128.584 89.1951 128.545C89.0521 128.545 88.9091 128.545 88.7662 128.545C82.3519 128.5 75.9441 128.364 69.5493 128.124C69.4063 128.124 69.2568 128.117 69.1138 128.104C62.6151 127.864 56.1293 127.52 49.6435 127.086C49.494 127.073 49.3446 127.066 49.1951 127.053C42.5338 126.599 35.8856 126.041 29.2569 125.373C29.1009 125.36 28.9514 125.347 28.7889 125.328C21.9067 124.64 15.044 123.842 8.19432 122.921C8.03185 122.901 7.86938 122.875 7.70691 122.856C7.7524 122.973 7.80439 123.09 7.84988 123.206C7.86938 123.239 7.88238 123.278 7.89538 123.31C8.05785 123.33 8.22032 123.355 8.38279 123.375C15.213 124.283 22.0692 125.081 28.9384 125.769C29.0944 125.788 29.2504 125.801 29.4063 125.814C36.0221 126.469 42.6508 127.027 49.2926 127.475C49.4485 127.488 49.598 127.494 49.7475 127.507C56.2138 127.942 62.6801 128.286 69.1593 128.526C69.3023 128.526 69.4518 128.539 69.5948 128.539C75.9831 128.772 82.3713 128.915 88.7596 128.96C88.9026 128.96 89.0456 128.96 89.1886 128.96C90.5598 128.967 91.9375 128.973 93.3088 128.973C98.3128 128.973 103.317 128.915 108.321 128.798C108.464 128.798 108.613 128.798 108.756 128.792C115.197 128.636 121.624 128.39 128.051 128.046C128.194 128.046 128.337 128.033 128.48 128.02C135.057 127.663 141.627 127.209 148.178 126.651C148.334 126.645 148.49 126.632 148.646 126.612C155.431 126.028 162.202 125.347 168.948 124.543C169.117 124.523 169.279 124.504 169.442 124.484C169.513 124.329 169.578 124.179 169.643 124.03C169.481 124.056 169.318 124.076 169.149 124.089L169.156 124.095Z" stroke="#637425" stroke-opacity="0.4" stroke-miterlimit="10"/>
<path d="M157.777 143.012C151.752 143.9 145.708 144.666 139.645 145.295C139.463 145.315 139.294 145.341 139.112 145.353C133.484 145.944 127.843 146.417 122.183 146.781C122.033 146.794 121.877 146.8 121.728 146.807C116.341 147.157 110.94 147.403 105.54 147.553C105.397 147.559 105.254 147.559 105.111 147.566C99.8011 147.708 94.4916 147.754 89.1886 147.702C89.0457 147.702 88.9027 147.702 88.7597 147.702C83.4307 147.65 78.1017 147.501 72.7792 147.248C72.6362 147.248 72.4868 147.241 72.3373 147.228C66.8458 146.975 61.3544 146.612 55.8824 146.145C55.7199 146.125 55.564 146.112 55.4015 146.1C49.5981 145.606 43.8207 144.997 38.0497 144.264C37.8678 144.244 37.6923 144.218 37.5103 144.199C31.2325 143.401 24.9807 142.467 18.7614 141.396C18.5599 141.364 18.3519 141.325 18.157 141.292C18.2675 141.448 18.3909 141.61 18.5014 141.766C18.5209 141.792 18.5404 141.818 18.5599 141.844C18.7679 141.876 18.9693 141.915 19.1773 141.948C25.3641 143.012 31.5835 143.939 37.8288 144.737C38.0108 144.763 38.1992 144.783 38.3812 144.809C44.1066 145.529 49.858 146.138 55.6224 146.631C55.7784 146.651 55.9409 146.664 56.1034 146.677C61.5363 147.137 66.9823 147.494 72.4478 147.747C72.5907 147.754 72.7402 147.767 72.8897 147.767C78.1667 148.013 83.4567 148.162 88.7532 148.214C88.8962 148.214 89.0392 148.214 89.1821 148.214C90.5404 148.227 91.8986 148.234 93.2569 148.234H93.3023C97.2016 148.234 101.101 148.182 104.987 148.078C105.13 148.078 105.273 148.078 105.416 148.065C110.784 147.922 116.146 147.682 121.488 147.332C121.644 147.326 121.793 147.313 121.942 147.3C127.564 146.936 133.172 146.469 138.755 145.879C138.937 145.859 139.112 145.847 139.294 145.821C145.325 145.191 151.336 144.432 157.322 143.544C157.53 143.518 157.738 143.485 157.939 143.453C158.082 143.271 158.225 143.089 158.368 142.908C158.16 142.94 157.959 142.973 157.751 142.999L157.777 143.012Z" stroke="#637425" stroke-opacity="0.4" stroke-miterlimit="10"/>
<path d="M133.842 164.569C133.595 164.712 133.348 164.861 133.101 165.003C132.743 165.049 132.379 165.094 132.022 165.133C128.181 165.574 124.321 165.951 120.454 166.262C120.188 166.281 119.908 166.307 119.635 166.327C116.223 166.593 112.799 166.8 109.367 166.963C109.172 166.969 108.977 166.982 108.782 166.989C105.578 167.131 102.368 167.235 99.1512 167.287C98.9952 167.287 98.8458 167.293 98.6963 167.293C96.9026 167.326 95.109 167.339 93.3218 167.339H93.2503C91.8986 167.339 90.5468 167.332 89.2016 167.313C89.0586 167.313 88.9156 167.313 88.7727 167.313C85.5623 167.268 82.3584 167.183 79.1675 167.047C79.005 167.047 78.849 167.034 78.6866 167.027C75.3072 166.885 71.9408 166.69 68.5745 166.444C68.3665 166.424 68.152 166.411 67.9441 166.398C64.2203 166.119 60.5095 165.782 56.8117 165.38C56.5322 165.354 56.2593 165.321 55.9798 165.289C51.6257 164.809 47.291 164.244 42.9693 163.589C42.6119 163.537 42.2609 163.485 41.91 163.434C41.8775 163.414 41.845 163.395 41.819 163.375C41.598 163.232 41.3771 163.09 41.1561 162.947C41.5006 163.005 41.8515 163.051 42.1959 163.109C46.6086 163.79 51.0408 164.387 55.4729 164.887C55.7459 164.919 56.0188 164.952 56.2918 164.978C60.0676 165.399 63.8499 165.756 67.6386 166.048C67.8466 166.067 68.0546 166.08 68.2625 166.093C71.6874 166.353 75.1122 166.56 78.5501 166.71C78.7061 166.716 78.8685 166.729 79.031 166.729C82.2804 166.872 85.5363 166.963 88.7921 167.002C88.9351 167.002 89.0716 167.008 89.2211 167.008C92.438 167.047 95.6549 167.04 98.8653 166.989C99.0147 166.989 99.1707 166.989 99.3202 166.982C102.589 166.924 105.851 166.82 109.114 166.664C109.309 166.664 109.504 166.645 109.699 166.638C113.195 166.47 116.691 166.243 120.181 165.957C120.448 165.938 120.714 165.912 120.981 165.892C124.932 165.561 128.864 165.166 132.802 164.699C133.159 164.653 133.51 164.614 133.861 164.569H133.842Z" stroke="#637425" stroke-opacity="0.4" stroke-miterlimit="10"/>
</svg>
