<svg width="348" height="145" viewBox="0 0 348 145" fill="none" xmlns="http://www.w3.org/2000/svg">
<path d="M126.45 38V59H121.05V44.6L112.32 59H108.42L99.69 44.6V59H94.29V38H101.58L110.37 52.82L119.16 38H126.45ZM129.636 35H134.766V39.47H129.636V35ZM129.636 41.33H134.766V59H129.636V41.33ZM137.319 50.18C137.319 43.67 142.239 41.03 149.559 41.03C156.159 41.03 160.809 43.19 161.649 48.38H156.399C155.709 46.1 153.279 45.32 149.559 45.32C145.149 45.32 142.449 46.49 142.449 50.18C142.449 53.84 145.149 55.01 149.559 55.01C153.279 55.01 155.709 54.23 156.399 51.95H161.649C160.809 57.14 156.159 59.3 149.559 59.3C142.239 59.3 137.319 56.66 137.319 50.18ZM179.625 41.03C184.335 41.03 188.745 42.71 188.805 49.22L188.745 59H183.585V51.17C183.585 47.42 182.325 45.47 178.095 45.47C174.645 45.47 170.925 47.24 169.335 49.1V59H164.205V35H169.335V44.42C171.855 42.44 175.335 41.03 179.625 41.03ZM203.135 55.13C206.675 55.13 208.835 54.47 210.125 52.67H215.225C214.055 57.17 209.675 59.3 203.135 59.3C196.415 59.3 191.195 56.66 191.195 50.18C191.195 43.67 196.265 41.03 203.435 41.03C210.155 41.03 215.525 43.34 215.525 51.38H196.445C197.015 54.2 199.715 55.13 203.135 55.13ZM203.405 44.93C199.895 44.93 197.435 45.62 196.625 48.11H210.035C209.165 45.62 206.645 44.93 203.405 44.93ZM218.081 35H223.211V59H218.081V35ZM226.21 35H231.34V59H226.21V35ZM245.833 55.13C249.373 55.13 251.533 54.47 252.823 52.67H257.923C256.753 57.17 252.373 59.3 245.833 59.3C239.113 59.3 233.893 56.66 233.893 50.18C233.893 43.67 238.963 41.03 246.133 41.03C252.853 41.03 258.223 43.34 258.223 51.38H239.143C239.713 54.2 242.413 55.13 245.833 55.13ZM246.103 44.93C242.593 44.93 240.133 45.62 239.323 48.11H252.733C251.863 45.62 249.343 44.93 246.103 44.93Z" fill="white"/>
<path d="M95.45 65V86H90.05V71.6L81.32 86H77.42L68.69 71.6V86H63.29V65H70.58L79.37 79.82L88.16 65H95.45ZM110.4 86.3C103.08 86.3 98.1603 83.66 98.1603 77.18C98.1603 70.67 103.08 68.03 110.4 68.03C117.69 68.03 122.64 70.67 122.64 77.18C122.64 83.66 117.69 86.3 110.4 86.3ZM110.4 82.01C115.14 82.01 117.48 80.84 117.48 77.18C117.48 73.49 115.14 72.32 110.4 72.32C105.63 72.32 103.29 73.49 103.29 77.18C103.29 80.84 105.63 82.01 110.4 82.01ZM124.395 79.79H129.525C129.525 81.68 131.475 82.4 137.205 82.4C142.755 82.4 143.655 82.04 143.655 80.66C143.655 79.31 142.815 79.22 136.605 78.83C128.835 78.38 125.025 77.78 125.025 73.52C125.025 68.9 130.425 68.03 136.725 68.03C143.385 68.03 148.215 68.9 148.215 73.76H143.055C143.055 72.29 141.195 71.93 136.425 71.93C131.565 71.93 130.185 72.29 130.185 73.31C130.185 74.42 131.115 74.6 137.205 75.05C144.105 75.56 148.815 75.74 148.815 80.45C148.815 85.43 144.315 86.3 137.505 86.3C130.695 86.3 124.395 85.43 124.395 79.79ZM165.319 68.03C170.989 68.03 175.849 70.43 175.849 77.18C175.849 83.93 170.989 86.3 165.319 86.3C161.509 86.3 158.419 85.25 156.499 83.24V86H151.369V62H156.499V71.09C158.419 69.08 161.509 68.03 165.319 68.03ZM163.609 82.01C168.199 82.01 170.689 80.66 170.689 77.18C170.689 73.67 168.199 72.32 163.609 72.32C159.019 72.32 156.499 73.67 156.499 77.18C156.499 80.66 159.019 82.01 163.609 82.01ZM197.835 68.33H202.965V86H197.835V82.91C195.315 84.89 191.835 86.3 187.545 86.3C182.835 86.3 178.425 84.62 178.365 78.11L178.425 68.33H183.585V76.16C183.585 79.91 184.845 81.86 189.075 81.86C192.525 81.86 196.245 80.09 197.835 78.23V68.33ZM220.168 68.03C222.268 68.03 223.738 68.33 224.938 68.63V72.92C223.258 72.5 221.908 72.32 220.408 72.32C217.528 72.32 214.228 72.98 211.108 75.41V86H205.978V68.33H211.108V71.33C213.748 68.96 216.868 68.03 220.168 68.03ZM245.637 68.33H250.797V83.18C250.797 90.38 245.967 93.5 239.277 93.5C234.147 93.5 229.917 92.54 228.207 92.09V87.95C230.277 88.34 234.237 89.21 238.137 89.21C243.447 89.21 245.427 87.17 245.637 82.64C243.837 84.62 240.867 85.79 236.697 85.79C230.637 85.79 226.317 83.15 226.317 76.91C226.317 70.67 230.637 68.03 236.697 68.03C240.897 68.03 243.867 69.2 245.637 71.18V68.33ZM238.557 81.5C243.387 81.5 245.637 80.15 245.637 76.91C245.637 73.67 243.387 72.32 238.557 72.32C233.727 72.32 231.447 73.67 231.447 76.91C231.447 80.15 233.727 81.5 238.557 81.5ZM265.429 82.13C268.969 82.13 271.129 81.47 272.419 79.67H277.519C276.349 84.17 271.969 86.3 265.429 86.3C258.709 86.3 253.489 83.66 253.489 77.18C253.489 70.67 258.559 68.03 265.729 68.03C272.449 68.03 277.819 70.34 277.819 78.38H258.739C259.309 81.2 262.009 82.13 265.429 82.13ZM265.699 71.93C262.189 71.93 259.729 72.62 258.919 75.11H272.329C271.459 72.62 268.939 71.93 265.699 71.93ZM294.565 68.03C296.665 68.03 298.135 68.33 299.335 68.63V72.92C297.655 72.5 296.305 72.32 294.805 72.32C291.925 72.32 288.625 72.98 285.505 75.41V86H280.375V68.33H285.505V71.33C288.145 68.96 291.265 68.03 294.565 68.03Z" fill="white"/>
<path d="M322.061 54.5681C314.459 56.9074 311.794 56.1824 309.334 51.99C311.067 56.3957 309.467 58.4413 302.116 61.2158C309.19 58.7668 312.229 59.1072 315.229 64.1922C312.93 59.4245 314.429 57.3461 322.061 54.5681Z" fill="#637425"/>
<path d="M12.1976 96.3264C18.0051 93.6925 20.2463 94.0204 22.7833 97.1765C20.8027 93.7771 21.8184 91.9648 27.3656 89.0029C21.9982 91.6742 19.5075 91.6941 16.4168 87.8677C18.901 91.5053 17.9704 93.3344 12.1976 96.3264Z" fill="#637425"/>
<path d="M340.072 42.6361C340.189 43.0694 340.111 43.5843 339.739 44.203C339.366 44.8239 338.72 45.51 337.785 46.2541C335.916 47.7412 332.979 49.3915 329.056 51.1705C321.219 54.7251 309.552 58.7484 294.909 62.9878C265.63 71.4648 224.519 80.7876 178.518 88.9444C132.518 97.1011 90.3526 102.545 59.3698 104.753C43.8751 105.858 31.1942 106.152 22.2345 105.576C17.7504 105.287 14.2275 104.783 11.7589 104.065C10.5238 103.705 9.58161 103.301 8.92102 102.863C8.2628 102.427 7.92415 101.986 7.8064 101.553C7.68866 101.12 7.76754 100.605 8.1391 99.9862C8.512 99.3653 9.15777 98.6793 10.0931 97.9352C11.9623 96.4481 14.8996 94.7977 18.8218 93.0188C26.6589 89.4641 38.3263 85.4408 52.969 81.2014C82.2483 72.7244 123.359 63.4016 169.36 55.2448C215.36 47.0881 257.525 41.6444 288.508 39.4359C304.003 38.3313 316.684 38.0372 325.644 38.6134C330.128 38.9018 333.651 39.4066 336.119 40.1246C337.354 40.4838 338.296 40.8883 338.957 41.3259C339.615 41.762 339.954 42.2029 340.072 42.6361Z" stroke="#637425"/>
<path d="M126.45 38V59H121.05V44.6L112.32 59H108.42L99.69 44.6V59H94.29V38H101.58L110.37 52.82L119.16 38H126.45ZM129.636 35H134.766V39.47H129.636V35ZM129.636 41.33H134.766V59H129.636V41.33ZM137.319 50.18C137.319 43.67 142.239 41.03 149.559 41.03C156.159 41.03 160.809 43.19 161.649 48.38H156.399C155.709 46.1 153.279 45.32 149.559 45.32C145.149 45.32 142.449 46.49 142.449 50.18C142.449 53.84 145.149 55.01 149.559 55.01C153.279 55.01 155.709 54.23 156.399 51.95H161.649C160.809 57.14 156.159 59.3 149.559 59.3C142.239 59.3 137.319 56.66 137.319 50.18ZM179.625 41.03C184.335 41.03 188.745 42.71 188.805 49.22L188.745 59H183.585V51.17C183.585 47.42 182.325 45.47 178.095 45.47C174.645 45.47 170.925 47.24 169.335 49.1V59H164.205V35H169.335V44.42C171.855 42.44 175.335 41.03 179.625 41.03ZM203.135 55.13C206.675 55.13 208.835 54.47 210.125 52.67H215.225C214.055 57.17 209.675 59.3 203.135 59.3C196.415 59.3 191.195 56.66 191.195 50.18C191.195 43.67 196.265 41.03 203.435 41.03C210.155 41.03 215.525 43.34 215.525 51.38H196.445C197.015 54.2 199.715 55.13 203.135 55.13ZM203.405 44.93C199.895 44.93 197.435 45.62 196.625 48.11H210.035C209.165 45.62 206.645 44.93 203.405 44.93ZM218.081 35H223.211V59H218.081V35ZM226.21 35H231.34V59H226.21V35ZM245.833 55.13C249.373 55.13 251.533 54.47 252.823 52.67H257.923C256.753 57.17 252.373 59.3 245.833 59.3C239.113 59.3 233.893 56.66 233.893 50.18C233.893 43.67 238.963 41.03 246.133 41.03C252.853 41.03 258.223 43.34 258.223 51.38H239.143C239.713 54.2 242.413 55.13 245.833 55.13ZM246.103 44.93C242.593 44.93 240.133 45.62 239.323 48.11H252.733C251.863 45.62 249.343 44.93 246.103 44.93Z" fill="white"/>
<path d="M95.45 65V86H90.05V71.6L81.32 86H77.42L68.69 71.6V86H63.29V65H70.58L79.37 79.82L88.16 65H95.45ZM110.4 86.3C103.08 86.3 98.1603 83.66 98.1603 77.18C98.1603 70.67 103.08 68.03 110.4 68.03C117.69 68.03 122.64 70.67 122.64 77.18C122.64 83.66 117.69 86.3 110.4 86.3ZM110.4 82.01C115.14 82.01 117.48 80.84 117.48 77.18C117.48 73.49 115.14 72.32 110.4 72.32C105.63 72.32 103.29 73.49 103.29 77.18C103.29 80.84 105.63 82.01 110.4 82.01Z" fill="white"/>
</svg>
